G75*
G70*
%OFA0B0*%
%FSLAX24Y24*%
%IPPOS*%
%LPD*%
%AMOC8*
5,1,8,0,0,1.08239X$1,22.5*
%
%ADD10C,0.0000*%
%ADD11C,0.0050*%
%ADD12C,0.0060*%
%ADD13R,0.0197X0.0236*%
%ADD14C,0.0079*%
%ADD15C,0.0040*%
%ADD16C,0.0080*%
%ADD17R,0.0256X0.0551*%
%ADD18C,0.0300*%
%ADD19R,0.0200X0.0300*%
%ADD20R,0.0400X0.0300*%
%ADD21R,0.0220X0.0680*%
%ADD22R,0.0240X0.0620*%
%ADD23R,0.0690X0.0290*%
%ADD24R,0.0551X0.0256*%
D10*
X000675Y001220D02*
X000675Y006190D01*
X017307Y006190D01*
X017307Y001220D01*
X000675Y001220D01*
D11*
X001234Y001261D02*
X001234Y001497D01*
X001234Y001261D02*
X003596Y001261D01*
X003596Y001497D01*
X004930Y001338D02*
X004930Y005865D01*
X010875Y005865D01*
X010875Y001338D01*
X016151Y001338D01*
X017332Y001338D01*
X017332Y005865D01*
X016151Y005865D01*
X010875Y005865D01*
X014320Y004861D02*
X014320Y002342D01*
X006761Y002342D01*
X006761Y004861D01*
X014320Y004861D01*
X016151Y005865D02*
X016151Y001338D01*
X017214Y001180D02*
X017450Y001180D01*
X017450Y006023D01*
X017214Y006023D01*
X017214Y001180D01*
X010939Y001226D02*
X010939Y002013D01*
X007002Y002013D01*
X006923Y002013D01*
X006923Y001226D01*
X007002Y001226D01*
X007002Y002013D01*
X007002Y001226D02*
X010939Y001226D01*
X010875Y001338D02*
X004930Y001338D01*
X006630Y000410D02*
X006705Y000335D01*
X006780Y000335D01*
X006855Y000410D01*
X006855Y000785D01*
X006780Y000785D02*
X006931Y000785D01*
X007091Y000785D02*
X007316Y000785D01*
X007391Y000710D01*
X007391Y000560D01*
X007316Y000485D01*
X007091Y000485D01*
X007091Y000335D02*
X007091Y000785D01*
X007551Y000635D02*
X007701Y000785D01*
X007701Y000335D01*
X007551Y000335D02*
X007851Y000335D01*
X003596Y002442D02*
X003596Y002678D01*
X001234Y002678D01*
X001234Y002442D01*
X001234Y002891D02*
X003596Y002891D01*
X003596Y003127D01*
X003596Y004072D02*
X003596Y004308D01*
X001234Y004308D01*
X001234Y004072D01*
X001254Y004561D02*
X003616Y004561D01*
X003616Y004797D01*
X003616Y005742D02*
X003616Y005978D01*
X001254Y005978D01*
X001254Y005742D01*
X001254Y004797D02*
X001254Y004561D01*
X001234Y003127D02*
X001234Y002891D01*
X009764Y003054D02*
X009766Y003080D01*
X009772Y003106D01*
X009781Y003130D01*
X009795Y003153D01*
X009811Y003174D01*
X009830Y003192D01*
X009852Y003206D01*
X009876Y003218D01*
X009901Y003226D01*
X009927Y003230D01*
X009953Y003230D01*
X009979Y003226D01*
X010004Y003218D01*
X010028Y003206D01*
X010050Y003192D01*
X010069Y003174D01*
X010085Y003153D01*
X010099Y003130D01*
X010108Y003106D01*
X010114Y003080D01*
X010116Y003054D01*
X010114Y003028D01*
X010108Y003002D01*
X010099Y002978D01*
X010085Y002955D01*
X010069Y002934D01*
X010050Y002916D01*
X010028Y002902D01*
X010004Y002890D01*
X009979Y002882D01*
X009953Y002878D01*
X009927Y002878D01*
X009901Y002882D01*
X009876Y002890D01*
X009852Y002902D01*
X009830Y002916D01*
X009811Y002934D01*
X009795Y002955D01*
X009781Y002978D01*
X009772Y003002D01*
X009766Y003028D01*
X009764Y003054D01*
D12*
X011825Y004758D02*
X011825Y005081D01*
X012325Y005081D02*
X012325Y004758D01*
X012575Y004758D02*
X012575Y005081D01*
X013075Y005081D02*
X013075Y004758D01*
X014249Y004219D02*
X015369Y004219D01*
X015369Y003604D01*
X014249Y003604D01*
X014249Y004219D01*
X013525Y003545D02*
X013525Y002790D01*
X012885Y002790D02*
X012885Y003545D01*
X014705Y003080D02*
X015745Y003080D01*
X015745Y002460D02*
X014705Y002460D01*
X015014Y002120D02*
X015337Y002120D01*
X015337Y001620D02*
X015014Y001620D01*
X013787Y001620D02*
X013464Y001620D01*
X013464Y002120D02*
X013787Y002120D01*
X015755Y003758D02*
X015755Y004081D01*
X016255Y004081D02*
X016255Y003758D01*
X014887Y004870D02*
X014564Y004870D01*
X014564Y005370D02*
X014887Y005370D01*
X006575Y003120D02*
X006575Y002120D01*
X006575Y001120D01*
X005575Y001120D01*
X005575Y002120D01*
X006575Y002120D01*
X005575Y002120D02*
X005575Y003120D01*
X006575Y003120D01*
X004587Y004200D02*
X004264Y004200D01*
X004264Y004700D02*
X004587Y004700D01*
X005114Y005520D02*
X005437Y005520D01*
X005437Y006020D02*
X005114Y006020D01*
D13*
X014436Y004345D03*
X015184Y004345D03*
X015184Y003479D03*
X014810Y003479D03*
X014436Y003479D03*
D14*
X014357Y003715D03*
D15*
X014126Y003922D02*
X013886Y003922D01*
X014126Y004162D01*
X014126Y004222D01*
X014066Y004282D01*
X013946Y004282D01*
X013886Y004222D01*
X013758Y004222D02*
X013698Y004282D01*
X013578Y004282D01*
X013518Y004222D01*
X013518Y004162D01*
X013578Y004102D01*
X013698Y004102D01*
X013758Y004042D01*
X013758Y003982D01*
X013698Y003922D01*
X013578Y003922D01*
X013518Y003982D01*
X013390Y003982D02*
X013390Y004282D01*
X013638Y004342D02*
X013638Y003862D01*
X013390Y003982D02*
X013330Y003922D01*
X013210Y003922D01*
X013150Y003982D01*
X013150Y004282D01*
X012565Y003360D02*
X012642Y003283D01*
X012642Y003206D01*
X012565Y003130D01*
X012642Y003053D01*
X012642Y002976D01*
X012565Y002900D01*
X012412Y002900D01*
X012335Y002976D01*
X012181Y002900D02*
X012028Y003053D01*
X012105Y003053D02*
X011875Y003053D01*
X012105Y003053D02*
X012181Y003130D01*
X012181Y003283D01*
X012105Y003360D01*
X011875Y003360D01*
X011875Y002900D01*
X012488Y003130D02*
X012565Y003130D01*
X012335Y003283D02*
X012412Y003360D01*
X012565Y003360D01*
X010561Y004947D02*
X010484Y004870D01*
X010331Y004870D01*
X010254Y004947D01*
X010561Y005254D01*
X010561Y004947D01*
X010254Y004947D02*
X010254Y005254D01*
X010331Y005331D01*
X010484Y005331D01*
X010561Y005254D01*
X010101Y004870D02*
X009794Y004870D01*
X009947Y004870D02*
X009947Y005331D01*
X009794Y005177D01*
X009640Y005254D02*
X009564Y005331D01*
X009410Y005331D01*
X009333Y005254D01*
X009333Y005177D01*
X009410Y005100D01*
X009564Y005100D01*
X009640Y005024D01*
X009640Y004947D01*
X009564Y004870D01*
X009410Y004870D01*
X009333Y004947D01*
X009180Y004947D02*
X009180Y005331D01*
X009487Y005407D02*
X009487Y004793D01*
X009180Y004947D02*
X009103Y004870D01*
X008950Y004870D01*
X008873Y004947D01*
X008873Y005331D01*
X007502Y005388D02*
X007425Y005311D01*
X007502Y005234D01*
X007502Y005157D01*
X007425Y005081D01*
X007272Y005081D01*
X007195Y005157D01*
X007041Y005157D02*
X007041Y005234D01*
X006965Y005311D01*
X006811Y005311D01*
X006734Y005388D01*
X006734Y005464D01*
X006811Y005541D01*
X006965Y005541D01*
X007041Y005464D01*
X007195Y005464D02*
X007272Y005541D01*
X007425Y005541D01*
X007502Y005464D01*
X007502Y005388D01*
X007425Y005311D02*
X007348Y005311D01*
X007041Y005157D02*
X006965Y005081D01*
X006811Y005081D01*
X006734Y005157D01*
X006581Y005157D02*
X006581Y005541D01*
X006274Y005541D02*
X006274Y005157D01*
X006351Y005081D01*
X006504Y005081D01*
X006581Y005157D01*
X006888Y005004D02*
X006888Y005618D01*
X005793Y006380D02*
X005486Y006380D01*
X005639Y006380D02*
X005639Y006840D01*
X005486Y006686D01*
X005332Y006610D02*
X005255Y006533D01*
X005025Y006533D01*
X005179Y006533D02*
X005332Y006380D01*
X005025Y006380D02*
X005025Y006840D01*
X005255Y006840D01*
X005332Y006763D01*
X005332Y006610D01*
X004348Y004010D02*
X004348Y003550D01*
X004195Y003550D02*
X004502Y003550D01*
X004041Y003626D02*
X003965Y003550D01*
X003811Y003550D01*
X003735Y003626D01*
X003735Y003933D01*
X003811Y004010D01*
X003965Y004010D01*
X004041Y003933D01*
X004195Y003856D02*
X004348Y004010D01*
X005519Y002855D02*
X005826Y002855D01*
X005673Y002855D02*
X005673Y002395D01*
X005980Y002395D02*
X005980Y002855D01*
X006210Y002855D01*
X006287Y002779D01*
X006287Y002625D01*
X006210Y002549D01*
X005980Y002549D01*
X006440Y002702D02*
X006594Y002855D01*
X006594Y002395D01*
X006747Y002395D02*
X006440Y002395D01*
X013015Y001090D02*
X013015Y000630D01*
X013015Y000783D02*
X013245Y000783D01*
X013321Y000860D01*
X013321Y001013D01*
X013245Y001090D01*
X013015Y001090D01*
X013475Y001090D02*
X013475Y000860D01*
X013628Y000936D01*
X013705Y000936D01*
X013782Y000860D01*
X013782Y000706D01*
X013705Y000630D01*
X013552Y000630D01*
X013475Y000706D01*
X013321Y000630D02*
X013168Y000783D01*
X013475Y001090D02*
X013782Y001090D01*
X014885Y001160D02*
X014885Y000700D01*
X015038Y000853D02*
X015191Y000700D01*
X015115Y000853D02*
X014885Y000853D01*
X015115Y000853D02*
X015191Y000930D01*
X015191Y001083D01*
X015115Y001160D01*
X014885Y001160D01*
X015345Y000930D02*
X015652Y000930D01*
X015575Y000700D02*
X015575Y001160D01*
X015345Y000930D01*
X016833Y002055D02*
X016833Y002515D01*
X016839Y002530D02*
X016839Y002990D01*
X016686Y002836D01*
X016532Y002913D02*
X016455Y002990D01*
X016225Y002990D01*
X016225Y002530D01*
X016455Y002530D01*
X016532Y002606D01*
X016532Y002913D01*
X016686Y002530D02*
X016993Y002530D01*
X016986Y002515D02*
X016679Y002515D01*
X017140Y002515D02*
X017370Y002515D01*
X017447Y002439D01*
X017447Y002285D01*
X017370Y002209D01*
X017140Y002209D01*
X017140Y002055D02*
X017140Y002515D01*
X017600Y002439D02*
X017677Y002515D01*
X017830Y002515D01*
X017907Y002439D01*
X017907Y002362D01*
X017600Y002055D01*
X017907Y002055D01*
X017790Y003385D02*
X017637Y003385D01*
X017560Y003462D01*
X017407Y003615D02*
X017330Y003539D01*
X017100Y003539D01*
X017100Y003385D02*
X017100Y003845D01*
X017330Y003845D01*
X017407Y003769D01*
X017407Y003615D01*
X017714Y003615D02*
X017790Y003615D01*
X017867Y003539D01*
X017867Y003462D01*
X017790Y003385D01*
X017790Y003615D02*
X017867Y003692D01*
X017867Y003769D01*
X017790Y003845D01*
X017637Y003845D01*
X017560Y003769D01*
X016946Y003845D02*
X016639Y003845D01*
X016793Y003845D02*
X016793Y003385D01*
X016912Y004280D02*
X016836Y004356D01*
X016912Y004280D02*
X017066Y004280D01*
X017143Y004356D01*
X017143Y004433D01*
X017066Y004510D01*
X016989Y004510D01*
X017066Y004510D02*
X017143Y004586D01*
X017143Y004663D01*
X017066Y004740D01*
X016912Y004740D01*
X016836Y004663D01*
X016682Y004663D02*
X016605Y004740D01*
X016452Y004740D01*
X016375Y004663D01*
X016375Y004356D01*
X016452Y004280D01*
X016605Y004280D01*
X016682Y004356D01*
X015042Y006340D02*
X014735Y006340D01*
X015042Y006646D01*
X015042Y006723D01*
X014965Y006800D01*
X014812Y006800D01*
X014735Y006723D01*
X014581Y006723D02*
X014505Y006800D01*
X014351Y006800D01*
X014275Y006723D01*
X014275Y006416D01*
X014351Y006340D01*
X014505Y006340D01*
X014581Y006416D01*
X013543Y006416D02*
X013466Y006340D01*
X013312Y006340D01*
X013236Y006416D01*
X013236Y006493D01*
X013312Y006570D01*
X013466Y006570D01*
X013543Y006493D01*
X013543Y006416D01*
X013466Y006570D02*
X013543Y006646D01*
X013543Y006723D01*
X013466Y006800D01*
X013312Y006800D01*
X013236Y006723D01*
X013236Y006646D01*
X013312Y006570D01*
X013082Y006570D02*
X013005Y006493D01*
X012775Y006493D01*
X012775Y006340D02*
X012775Y006800D01*
X013005Y006800D01*
X013082Y006723D01*
X013082Y006570D01*
X012929Y006493D02*
X013082Y006340D01*
X012213Y006783D02*
X011906Y006476D01*
X011906Y006400D01*
X011752Y006400D02*
X011599Y006553D01*
X011675Y006553D02*
X011445Y006553D01*
X011675Y006553D02*
X011752Y006630D01*
X011752Y006783D01*
X011675Y006860D01*
X011445Y006860D01*
X011445Y006400D01*
X012213Y006783D02*
X012213Y006860D01*
X011906Y006860D01*
D16*
X008556Y004950D02*
X008556Y002895D01*
X008556Y002589D01*
X008249Y002589D01*
X008249Y002588D01*
X008556Y002895D01*
X008249Y002589D02*
X006195Y002589D01*
X006195Y004950D01*
X008556Y004950D01*
X009575Y004818D02*
X011676Y004818D01*
X011676Y002740D01*
X009575Y002740D01*
X009575Y004818D01*
X015028Y002966D02*
X015028Y002573D01*
X015422Y002770D01*
X015028Y002966D01*
D17*
X014887Y001869D03*
X015467Y001869D03*
X013917Y001869D03*
X013337Y001869D03*
X014437Y005119D03*
X015017Y005119D03*
X005563Y005770D03*
X004983Y005770D03*
X004717Y004449D03*
X004137Y004449D03*
D18*
X006825Y002620D02*
X009075Y002620D01*
X009075Y001620D02*
X006825Y001620D01*
D19*
X006675Y001620D03*
X006675Y002620D03*
D20*
X005375Y002620D03*
X005375Y001620D03*
D21*
X014605Y002770D03*
X015845Y002770D03*
D22*
X015445Y002770D03*
D23*
X013205Y002650D03*
X013205Y003690D03*
D24*
X012826Y004632D03*
X012076Y004632D03*
X012076Y005212D03*
X012826Y005212D03*
X016006Y004212D03*
X016006Y003632D03*
M02*
