G75*
G70*
%OFA0B0*%
%FSLAX24Y24*%
%IPPOS*%
%LPD*%
%AMOC8*
5,1,8,0,0,1.08239X$1,22.5*
%
%ADD10C,0.0000*%
%ADD11R,0.0236X0.0354*%
%ADD12C,0.0024*%
%ADD13R,0.0269X0.0128*%
%ADD14R,0.0128X0.0269*%
%ADD15R,0.0269X0.0128*%
%ADD16R,0.1367X0.1367*%
%ADD17C,0.0142*%
%ADD18R,0.0906X0.0787*%
%ADD19R,0.0433X0.0591*%
%ADD20R,0.0551X0.0709*%
%ADD21R,0.0710X0.0630*%
%ADD22R,0.0591X0.0433*%
%ADD23R,0.0236X0.0669*%
%ADD24R,0.0551X0.0551*%
D10*
X000675Y001220D02*
X000675Y006190D01*
X017307Y006190D01*
X017307Y001220D01*
X000675Y001220D01*
D11*
X014436Y003459D03*
X014810Y003459D03*
X015184Y003459D03*
X015184Y004364D03*
X014436Y004364D03*
D12*
X008662Y003049D02*
X008332Y003049D01*
X008662Y003049D02*
X008662Y002955D01*
X008332Y002955D01*
X008332Y003049D01*
X008332Y002978D02*
X008662Y002978D01*
X008662Y003001D02*
X008332Y003001D01*
X008332Y003024D02*
X008662Y003024D01*
X008662Y003047D02*
X008332Y003047D01*
D13*
X008439Y003002D03*
X008439Y003258D03*
X008439Y003514D03*
X008439Y003770D03*
X008439Y004025D03*
X008439Y004281D03*
X008439Y004537D03*
D14*
X008143Y004833D03*
X007887Y004833D03*
X007631Y004833D03*
X007375Y004833D03*
X007119Y004833D03*
X006863Y004833D03*
X006608Y004833D03*
X006608Y002706D03*
X006863Y002706D03*
X007119Y002706D03*
X007375Y002706D03*
X007631Y002706D03*
X007887Y002706D03*
X008143Y002706D03*
D15*
X006312Y003002D03*
X006312Y003258D03*
X006312Y003514D03*
X006312Y003770D03*
X006312Y004025D03*
X006312Y004281D03*
X006312Y004537D03*
D16*
X007375Y003770D03*
D17*
X006738Y004407D02*
X008012Y004407D01*
X008012Y003133D01*
X006738Y003133D01*
X006738Y004407D01*
X006738Y003274D02*
X008012Y003274D01*
X008012Y003415D02*
X006738Y003415D01*
X006738Y003556D02*
X008012Y003556D01*
X008012Y003697D02*
X006738Y003697D01*
X006738Y003838D02*
X008012Y003838D01*
X008012Y003979D02*
X006738Y003979D01*
X006738Y004120D02*
X008012Y004120D01*
X008012Y004261D02*
X006738Y004261D01*
X006738Y004402D02*
X008012Y004402D01*
D18*
X003616Y005270D03*
X001254Y005270D03*
X001234Y003600D03*
X003596Y003600D03*
X003596Y001970D03*
X001234Y001970D03*
D19*
X004012Y004450D03*
X004839Y004450D03*
X004862Y005770D03*
X005689Y005770D03*
X013212Y001870D03*
X014039Y001870D03*
X014762Y001870D03*
X015589Y001870D03*
X015139Y005120D03*
X014312Y005120D03*
D20*
X014556Y002770D03*
X015895Y002770D03*
D21*
X013205Y002610D03*
X013205Y003729D03*
D22*
X012825Y004506D03*
X012075Y004506D03*
X012075Y005333D03*
X012825Y005333D03*
X016005Y004333D03*
X016005Y003506D03*
D23*
X011375Y002389D03*
X010875Y002389D03*
X010375Y002389D03*
X009875Y002389D03*
X009875Y005169D03*
X010375Y005169D03*
X010875Y005169D03*
X011375Y005169D03*
D24*
X010545Y001620D03*
X009757Y001620D03*
X008970Y001620D03*
X008183Y001620D03*
X007395Y001620D03*
M02*
