G75*
G70*
%OFA0B0*%
%FSLAX24Y24*%
%IPPOS*%
%LPD*%
%AMOC8*
5,1,8,0,0,1.08239X$1,22.5*
%
%ADD10C,0.0000*%
%ADD11R,0.0236X0.0354*%
%ADD12C,0.0024*%
%ADD13C,0.0142*%
%ADD14C,0.0554*%
%ADD15R,0.0906X0.0787*%
%ADD16R,0.0433X0.0591*%
%ADD17C,0.0600*%
%ADD18R,0.0551X0.0709*%
%ADD19R,0.0710X0.0630*%
%ADD20R,0.0591X0.0433*%
%ADD21R,0.0236X0.0669*%
%ADD22R,0.0551X0.0551*%
%ADD23R,0.0512X0.0512*%
%ADD24C,0.0396*%
%ADD25C,0.0100*%
%ADD26C,0.0080*%
%ADD27C,0.0160*%
%ADD28C,0.0120*%
D10*
X000675Y001220D02*
X000675Y006190D01*
X017307Y006190D01*
X017307Y001220D01*
X000675Y001220D01*
D11*
X014436Y003459D03*
X014810Y003459D03*
X015184Y003459D03*
X015184Y004364D03*
X014436Y004364D03*
D12*
X008662Y004328D02*
X008332Y004328D01*
X008662Y004328D02*
X008662Y004234D01*
X008332Y004234D01*
X008332Y004328D01*
X008332Y004257D02*
X008662Y004257D01*
X008662Y004280D02*
X008332Y004280D01*
X008332Y004303D02*
X008662Y004303D01*
X008662Y004326D02*
X008332Y004326D01*
X008332Y004584D02*
X008662Y004584D01*
X008662Y004490D01*
X008332Y004490D01*
X008332Y004584D01*
X008332Y004513D02*
X008662Y004513D01*
X008662Y004536D02*
X008332Y004536D01*
X008332Y004559D02*
X008662Y004559D01*
X008662Y004582D02*
X008332Y004582D01*
X008190Y005057D02*
X008096Y005057D01*
X008190Y005057D02*
X008190Y004727D01*
X008096Y004727D01*
X008096Y005057D01*
X008096Y004750D02*
X008190Y004750D01*
X008190Y004773D02*
X008096Y004773D01*
X008096Y004796D02*
X008190Y004796D01*
X008190Y004819D02*
X008096Y004819D01*
X008096Y004842D02*
X008190Y004842D01*
X008190Y004865D02*
X008096Y004865D01*
X008096Y004888D02*
X008190Y004888D01*
X008190Y004911D02*
X008096Y004911D01*
X008096Y004934D02*
X008190Y004934D01*
X008190Y004957D02*
X008096Y004957D01*
X008096Y004980D02*
X008190Y004980D01*
X008190Y005003D02*
X008096Y005003D01*
X008096Y005026D02*
X008190Y005026D01*
X008190Y005049D02*
X008096Y005049D01*
X007934Y005057D02*
X007840Y005057D01*
X007934Y005057D02*
X007934Y004727D01*
X007840Y004727D01*
X007840Y005057D01*
X007840Y004750D02*
X007934Y004750D01*
X007934Y004773D02*
X007840Y004773D01*
X007840Y004796D02*
X007934Y004796D01*
X007934Y004819D02*
X007840Y004819D01*
X007840Y004842D02*
X007934Y004842D01*
X007934Y004865D02*
X007840Y004865D01*
X007840Y004888D02*
X007934Y004888D01*
X007934Y004911D02*
X007840Y004911D01*
X007840Y004934D02*
X007934Y004934D01*
X007934Y004957D02*
X007840Y004957D01*
X007840Y004980D02*
X007934Y004980D01*
X007934Y005003D02*
X007840Y005003D01*
X007840Y005026D02*
X007934Y005026D01*
X007934Y005049D02*
X007840Y005049D01*
X007678Y005057D02*
X007584Y005057D01*
X007678Y005057D02*
X007678Y004727D01*
X007584Y004727D01*
X007584Y005057D01*
X007584Y004750D02*
X007678Y004750D01*
X007678Y004773D02*
X007584Y004773D01*
X007584Y004796D02*
X007678Y004796D01*
X007678Y004819D02*
X007584Y004819D01*
X007584Y004842D02*
X007678Y004842D01*
X007678Y004865D02*
X007584Y004865D01*
X007584Y004888D02*
X007678Y004888D01*
X007678Y004911D02*
X007584Y004911D01*
X007584Y004934D02*
X007678Y004934D01*
X007678Y004957D02*
X007584Y004957D01*
X007584Y004980D02*
X007678Y004980D01*
X007678Y005003D02*
X007584Y005003D01*
X007584Y005026D02*
X007678Y005026D01*
X007678Y005049D02*
X007584Y005049D01*
X007422Y005057D02*
X007328Y005057D01*
X007422Y005057D02*
X007422Y004727D01*
X007328Y004727D01*
X007328Y005057D01*
X007328Y004750D02*
X007422Y004750D01*
X007422Y004773D02*
X007328Y004773D01*
X007328Y004796D02*
X007422Y004796D01*
X007422Y004819D02*
X007328Y004819D01*
X007328Y004842D02*
X007422Y004842D01*
X007422Y004865D02*
X007328Y004865D01*
X007328Y004888D02*
X007422Y004888D01*
X007422Y004911D02*
X007328Y004911D01*
X007328Y004934D02*
X007422Y004934D01*
X007422Y004957D02*
X007328Y004957D01*
X007328Y004980D02*
X007422Y004980D01*
X007422Y005003D02*
X007328Y005003D01*
X007328Y005026D02*
X007422Y005026D01*
X007422Y005049D02*
X007328Y005049D01*
X007166Y005057D02*
X007072Y005057D01*
X007166Y005057D02*
X007166Y004727D01*
X007072Y004727D01*
X007072Y005057D01*
X007072Y004750D02*
X007166Y004750D01*
X007166Y004773D02*
X007072Y004773D01*
X007072Y004796D02*
X007166Y004796D01*
X007166Y004819D02*
X007072Y004819D01*
X007072Y004842D02*
X007166Y004842D01*
X007166Y004865D02*
X007072Y004865D01*
X007072Y004888D02*
X007166Y004888D01*
X007166Y004911D02*
X007072Y004911D01*
X007072Y004934D02*
X007166Y004934D01*
X007166Y004957D02*
X007072Y004957D01*
X007072Y004980D02*
X007166Y004980D01*
X007166Y005003D02*
X007072Y005003D01*
X007072Y005026D02*
X007166Y005026D01*
X007166Y005049D02*
X007072Y005049D01*
X006910Y005057D02*
X006816Y005057D01*
X006910Y005057D02*
X006910Y004727D01*
X006816Y004727D01*
X006816Y005057D01*
X006816Y004750D02*
X006910Y004750D01*
X006910Y004773D02*
X006816Y004773D01*
X006816Y004796D02*
X006910Y004796D01*
X006910Y004819D02*
X006816Y004819D01*
X006816Y004842D02*
X006910Y004842D01*
X006910Y004865D02*
X006816Y004865D01*
X006816Y004888D02*
X006910Y004888D01*
X006910Y004911D02*
X006816Y004911D01*
X006816Y004934D02*
X006910Y004934D01*
X006910Y004957D02*
X006816Y004957D01*
X006816Y004980D02*
X006910Y004980D01*
X006910Y005003D02*
X006816Y005003D01*
X006816Y005026D02*
X006910Y005026D01*
X006910Y005049D02*
X006816Y005049D01*
X006655Y005057D02*
X006561Y005057D01*
X006655Y005057D02*
X006655Y004727D01*
X006561Y004727D01*
X006561Y005057D01*
X006561Y004750D02*
X006655Y004750D01*
X006655Y004773D02*
X006561Y004773D01*
X006561Y004796D02*
X006655Y004796D01*
X006655Y004819D02*
X006561Y004819D01*
X006561Y004842D02*
X006655Y004842D01*
X006655Y004865D02*
X006561Y004865D01*
X006561Y004888D02*
X006655Y004888D01*
X006655Y004911D02*
X006561Y004911D01*
X006561Y004934D02*
X006655Y004934D01*
X006655Y004957D02*
X006561Y004957D01*
X006561Y004980D02*
X006655Y004980D01*
X006655Y005003D02*
X006561Y005003D01*
X006561Y005026D02*
X006655Y005026D01*
X006655Y005049D02*
X006561Y005049D01*
X006418Y004584D02*
X006088Y004584D01*
X006418Y004584D02*
X006418Y004490D01*
X006088Y004490D01*
X006088Y004584D01*
X006088Y004513D02*
X006418Y004513D01*
X006418Y004536D02*
X006088Y004536D01*
X006088Y004559D02*
X006418Y004559D01*
X006418Y004582D02*
X006088Y004582D01*
X006088Y004328D02*
X006418Y004328D01*
X006418Y004234D01*
X006088Y004234D01*
X006088Y004328D01*
X006088Y004257D02*
X006418Y004257D01*
X006418Y004280D02*
X006088Y004280D01*
X006088Y004303D02*
X006418Y004303D01*
X006418Y004326D02*
X006088Y004326D01*
X006088Y004072D02*
X006418Y004072D01*
X006418Y003978D01*
X006088Y003978D01*
X006088Y004072D01*
X006088Y004001D02*
X006418Y004001D01*
X006418Y004024D02*
X006088Y004024D01*
X006088Y004047D02*
X006418Y004047D01*
X006418Y004070D02*
X006088Y004070D01*
X006088Y003817D02*
X006418Y003817D01*
X006418Y003723D01*
X006088Y003723D01*
X006088Y003817D01*
X006088Y003746D02*
X006418Y003746D01*
X006418Y003769D02*
X006088Y003769D01*
X006088Y003792D02*
X006418Y003792D01*
X006418Y003815D02*
X006088Y003815D01*
X006088Y003561D02*
X006418Y003561D01*
X006418Y003467D01*
X006088Y003467D01*
X006088Y003561D01*
X006088Y003490D02*
X006418Y003490D01*
X006418Y003513D02*
X006088Y003513D01*
X006088Y003536D02*
X006418Y003536D01*
X006418Y003559D02*
X006088Y003559D01*
X006088Y003305D02*
X006418Y003305D01*
X006418Y003211D01*
X006088Y003211D01*
X006088Y003305D01*
X006088Y003234D02*
X006418Y003234D01*
X006418Y003257D02*
X006088Y003257D01*
X006088Y003280D02*
X006418Y003280D01*
X006418Y003303D02*
X006088Y003303D01*
X006088Y003049D02*
X006418Y003049D01*
X006418Y002955D01*
X006088Y002955D01*
X006088Y003049D01*
X006088Y002978D02*
X006418Y002978D01*
X006418Y003001D02*
X006088Y003001D01*
X006088Y003024D02*
X006418Y003024D01*
X006418Y003047D02*
X006088Y003047D01*
X006561Y002812D02*
X006655Y002812D01*
X006655Y002482D01*
X006561Y002482D01*
X006561Y002812D01*
X006561Y002505D02*
X006655Y002505D01*
X006655Y002528D02*
X006561Y002528D01*
X006561Y002551D02*
X006655Y002551D01*
X006655Y002574D02*
X006561Y002574D01*
X006561Y002597D02*
X006655Y002597D01*
X006655Y002620D02*
X006561Y002620D01*
X006561Y002643D02*
X006655Y002643D01*
X006655Y002666D02*
X006561Y002666D01*
X006561Y002689D02*
X006655Y002689D01*
X006655Y002712D02*
X006561Y002712D01*
X006561Y002735D02*
X006655Y002735D01*
X006655Y002758D02*
X006561Y002758D01*
X006561Y002781D02*
X006655Y002781D01*
X006655Y002804D02*
X006561Y002804D01*
X006816Y002812D02*
X006910Y002812D01*
X006910Y002482D01*
X006816Y002482D01*
X006816Y002812D01*
X006816Y002505D02*
X006910Y002505D01*
X006910Y002528D02*
X006816Y002528D01*
X006816Y002551D02*
X006910Y002551D01*
X006910Y002574D02*
X006816Y002574D01*
X006816Y002597D02*
X006910Y002597D01*
X006910Y002620D02*
X006816Y002620D01*
X006816Y002643D02*
X006910Y002643D01*
X006910Y002666D02*
X006816Y002666D01*
X006816Y002689D02*
X006910Y002689D01*
X006910Y002712D02*
X006816Y002712D01*
X006816Y002735D02*
X006910Y002735D01*
X006910Y002758D02*
X006816Y002758D01*
X006816Y002781D02*
X006910Y002781D01*
X006910Y002804D02*
X006816Y002804D01*
X007072Y002812D02*
X007166Y002812D01*
X007166Y002482D01*
X007072Y002482D01*
X007072Y002812D01*
X007072Y002505D02*
X007166Y002505D01*
X007166Y002528D02*
X007072Y002528D01*
X007072Y002551D02*
X007166Y002551D01*
X007166Y002574D02*
X007072Y002574D01*
X007072Y002597D02*
X007166Y002597D01*
X007166Y002620D02*
X007072Y002620D01*
X007072Y002643D02*
X007166Y002643D01*
X007166Y002666D02*
X007072Y002666D01*
X007072Y002689D02*
X007166Y002689D01*
X007166Y002712D02*
X007072Y002712D01*
X007072Y002735D02*
X007166Y002735D01*
X007166Y002758D02*
X007072Y002758D01*
X007072Y002781D02*
X007166Y002781D01*
X007166Y002804D02*
X007072Y002804D01*
X007328Y002812D02*
X007422Y002812D01*
X007422Y002482D01*
X007328Y002482D01*
X007328Y002812D01*
X007328Y002505D02*
X007422Y002505D01*
X007422Y002528D02*
X007328Y002528D01*
X007328Y002551D02*
X007422Y002551D01*
X007422Y002574D02*
X007328Y002574D01*
X007328Y002597D02*
X007422Y002597D01*
X007422Y002620D02*
X007328Y002620D01*
X007328Y002643D02*
X007422Y002643D01*
X007422Y002666D02*
X007328Y002666D01*
X007328Y002689D02*
X007422Y002689D01*
X007422Y002712D02*
X007328Y002712D01*
X007328Y002735D02*
X007422Y002735D01*
X007422Y002758D02*
X007328Y002758D01*
X007328Y002781D02*
X007422Y002781D01*
X007422Y002804D02*
X007328Y002804D01*
X007584Y002812D02*
X007678Y002812D01*
X007678Y002482D01*
X007584Y002482D01*
X007584Y002812D01*
X007584Y002505D02*
X007678Y002505D01*
X007678Y002528D02*
X007584Y002528D01*
X007584Y002551D02*
X007678Y002551D01*
X007678Y002574D02*
X007584Y002574D01*
X007584Y002597D02*
X007678Y002597D01*
X007678Y002620D02*
X007584Y002620D01*
X007584Y002643D02*
X007678Y002643D01*
X007678Y002666D02*
X007584Y002666D01*
X007584Y002689D02*
X007678Y002689D01*
X007678Y002712D02*
X007584Y002712D01*
X007584Y002735D02*
X007678Y002735D01*
X007678Y002758D02*
X007584Y002758D01*
X007584Y002781D02*
X007678Y002781D01*
X007678Y002804D02*
X007584Y002804D01*
X007840Y002812D02*
X007934Y002812D01*
X007934Y002482D01*
X007840Y002482D01*
X007840Y002812D01*
X007840Y002505D02*
X007934Y002505D01*
X007934Y002528D02*
X007840Y002528D01*
X007840Y002551D02*
X007934Y002551D01*
X007934Y002574D02*
X007840Y002574D01*
X007840Y002597D02*
X007934Y002597D01*
X007934Y002620D02*
X007840Y002620D01*
X007840Y002643D02*
X007934Y002643D01*
X007934Y002666D02*
X007840Y002666D01*
X007840Y002689D02*
X007934Y002689D01*
X007934Y002712D02*
X007840Y002712D01*
X007840Y002735D02*
X007934Y002735D01*
X007934Y002758D02*
X007840Y002758D01*
X007840Y002781D02*
X007934Y002781D01*
X007934Y002804D02*
X007840Y002804D01*
X008096Y002812D02*
X008190Y002812D01*
X008190Y002482D01*
X008096Y002482D01*
X008096Y002812D01*
X008096Y002505D02*
X008190Y002505D01*
X008190Y002528D02*
X008096Y002528D01*
X008096Y002551D02*
X008190Y002551D01*
X008190Y002574D02*
X008096Y002574D01*
X008096Y002597D02*
X008190Y002597D01*
X008190Y002620D02*
X008096Y002620D01*
X008096Y002643D02*
X008190Y002643D01*
X008190Y002666D02*
X008096Y002666D01*
X008096Y002689D02*
X008190Y002689D01*
X008190Y002712D02*
X008096Y002712D01*
X008096Y002735D02*
X008190Y002735D01*
X008190Y002758D02*
X008096Y002758D01*
X008096Y002781D02*
X008190Y002781D01*
X008190Y002804D02*
X008096Y002804D01*
X008332Y003049D02*
X008662Y003049D01*
X008662Y002955D01*
X008332Y002955D01*
X008332Y003049D01*
X008332Y002978D02*
X008662Y002978D01*
X008662Y003001D02*
X008332Y003001D01*
X008332Y003024D02*
X008662Y003024D01*
X008662Y003047D02*
X008332Y003047D01*
X008332Y003305D02*
X008662Y003305D01*
X008662Y003211D01*
X008332Y003211D01*
X008332Y003305D01*
X008332Y003234D02*
X008662Y003234D01*
X008662Y003257D02*
X008332Y003257D01*
X008332Y003280D02*
X008662Y003280D01*
X008662Y003303D02*
X008332Y003303D01*
X008332Y003561D02*
X008662Y003561D01*
X008662Y003467D01*
X008332Y003467D01*
X008332Y003561D01*
X008332Y003490D02*
X008662Y003490D01*
X008662Y003513D02*
X008332Y003513D01*
X008332Y003536D02*
X008662Y003536D01*
X008662Y003559D02*
X008332Y003559D01*
X008332Y003817D02*
X008662Y003817D01*
X008662Y003723D01*
X008332Y003723D01*
X008332Y003817D01*
X008332Y003746D02*
X008662Y003746D01*
X008662Y003769D02*
X008332Y003769D01*
X008332Y003792D02*
X008662Y003792D01*
X008662Y003815D02*
X008332Y003815D01*
X008332Y004072D02*
X008662Y004072D01*
X008662Y003978D01*
X008332Y003978D01*
X008332Y004072D01*
X008332Y004001D02*
X008662Y004001D01*
X008662Y004024D02*
X008332Y004024D01*
X008332Y004047D02*
X008662Y004047D01*
X008662Y004070D02*
X008332Y004070D01*
D13*
X008012Y004407D02*
X006738Y004407D01*
X008012Y004407D02*
X008012Y003133D01*
X006738Y003133D01*
X006738Y004407D01*
X006738Y003274D02*
X008012Y003274D01*
X008012Y003415D02*
X006738Y003415D01*
X006738Y003556D02*
X008012Y003556D01*
X008012Y003697D02*
X006738Y003697D01*
X006738Y003838D02*
X008012Y003838D01*
X008012Y003979D02*
X006738Y003979D01*
X006738Y004120D02*
X008012Y004120D01*
X008012Y004261D02*
X006738Y004261D01*
X006738Y004402D02*
X008012Y004402D01*
D14*
X002475Y004436D03*
X002475Y002703D03*
D15*
X003596Y001970D03*
X001234Y001970D03*
X001234Y003600D03*
X003596Y003600D03*
X003616Y005270D03*
X001254Y005270D03*
D16*
X004012Y004450D03*
X004839Y004450D03*
X004862Y005770D03*
X005689Y005770D03*
X013212Y001870D03*
X014039Y001870D03*
X014762Y001870D03*
X015589Y001870D03*
X015139Y005120D03*
X014312Y005120D03*
D17*
X005125Y002620D02*
X004525Y002620D01*
X004525Y001620D02*
X005125Y001620D01*
D18*
X014556Y002770D03*
X015895Y002770D03*
D19*
X013205Y002610D03*
X013205Y003729D03*
D20*
X012825Y004506D03*
X012075Y004506D03*
X012075Y005333D03*
X012825Y005333D03*
X016005Y004333D03*
X016005Y003506D03*
D21*
X011375Y002389D03*
X010875Y002389D03*
X010375Y002389D03*
X009875Y002389D03*
X009875Y005169D03*
X010375Y005169D03*
X010875Y005169D03*
X011375Y005169D03*
D22*
X010545Y001620D03*
X009757Y001620D03*
X008970Y001620D03*
X008183Y001620D03*
X007395Y001620D03*
D23*
X005755Y002100D03*
X016875Y003090D03*
X016915Y001760D03*
D24*
X016115Y001870D03*
X016465Y002480D03*
X013975Y003730D03*
X012425Y003720D03*
X012305Y002930D03*
X012345Y002250D03*
X011635Y001650D03*
X010225Y003240D03*
X009375Y003220D03*
X008675Y002620D03*
X007375Y002190D03*
X005777Y003258D03*
X004425Y003420D03*
X004425Y003920D03*
X005595Y004700D03*
X006195Y005600D03*
X006625Y005880D03*
X007485Y005670D03*
X008605Y005190D03*
X008995Y004870D03*
X008975Y004370D03*
X009425Y005670D03*
X013425Y005320D03*
X013835Y005660D03*
X015165Y005770D03*
X015845Y005800D03*
X016525Y005370D03*
X015715Y004980D03*
X002525Y005370D03*
X002325Y001610D03*
D25*
X002725Y001520D02*
X002815Y001410D01*
X003596Y001970D02*
X003546Y002080D01*
X002075Y002080D01*
X001915Y002240D01*
X001915Y005700D01*
X002035Y005820D01*
X004175Y005820D01*
X004255Y005740D01*
X004255Y005400D01*
X004315Y005340D01*
X005935Y005340D01*
X006383Y004892D01*
X006608Y004892D01*
X006863Y004892D02*
X006863Y005271D01*
X006635Y005500D01*
X006635Y005870D01*
X006625Y005880D01*
X006995Y005960D02*
X006995Y005650D01*
X007375Y005220D01*
X007375Y004892D01*
X007119Y004892D02*
X006863Y004892D01*
X006253Y004537D02*
X006251Y004540D01*
X006035Y004540D01*
X005975Y004600D01*
X005975Y004980D01*
X005815Y005140D01*
X004175Y005140D01*
X004135Y005180D01*
X003895Y005180D01*
X003755Y005320D01*
X003756Y005320D01*
X003616Y005270D01*
X004825Y004456D02*
X004839Y004450D01*
X004825Y004456D02*
X004825Y004170D01*
X004575Y003920D02*
X004725Y003820D01*
X006025Y003820D01*
X006075Y003770D01*
X006253Y003770D01*
X006031Y003514D02*
X005925Y003620D01*
X004725Y003620D01*
X004425Y003420D01*
X004675Y003120D02*
X004275Y003020D01*
X003725Y003020D01*
X003625Y003120D01*
X003625Y003601D01*
X003596Y003600D01*
X004425Y003920D02*
X004575Y003920D01*
X004675Y003120D02*
X005245Y003120D01*
X005635Y002880D01*
X005985Y002880D01*
X006088Y003002D01*
X006253Y003002D01*
X006253Y003258D02*
X005777Y003258D01*
X005775Y003270D01*
X006031Y003514D02*
X006253Y003514D01*
X006253Y004281D02*
X005863Y004281D01*
X005775Y004370D01*
X007631Y004892D02*
X007631Y005125D01*
X007775Y005270D01*
X008425Y005270D01*
X008605Y005190D01*
X008715Y005300D01*
X009155Y005300D01*
X009286Y005169D01*
X009875Y005169D01*
X008995Y004870D02*
X008875Y004770D01*
X008575Y004770D01*
X008493Y004687D01*
X008493Y004537D01*
X008497Y004537D01*
X008497Y004281D02*
X008863Y004281D01*
X008975Y004370D01*
X009325Y004120D02*
X009175Y003970D01*
X008875Y003970D01*
X008819Y004025D01*
X008497Y004025D01*
X008497Y003770D02*
X009725Y003770D01*
X010225Y003240D01*
X010225Y003970D01*
X010762Y004506D01*
X012075Y004506D01*
X012675Y004920D02*
X011475Y004920D01*
X011375Y005020D01*
X011375Y005169D01*
X010875Y005169D02*
X010875Y004643D01*
X010762Y004506D01*
X012075Y005333D02*
X012825Y005333D01*
X012689Y005320D01*
X013425Y005320D01*
X013725Y005120D01*
X014312Y005120D01*
X014312Y004733D01*
X014425Y004620D01*
X014425Y004375D01*
X014436Y004364D01*
X014430Y004370D01*
X014125Y004370D01*
X013775Y004020D01*
X013975Y003820D01*
X013975Y003730D01*
X013775Y004020D02*
X013625Y003870D01*
X013205Y003729D01*
X013162Y003600D01*
X013075Y003520D01*
X012915Y003520D01*
X012695Y003300D01*
X012695Y002600D01*
X012345Y002250D01*
X011585Y002970D01*
X011075Y002970D01*
X010875Y002770D01*
X010875Y002389D01*
X009825Y001670D02*
X009825Y001620D01*
X009826Y001620D01*
X009757Y001620D01*
X009505Y001972D01*
X009505Y002540D01*
X008837Y003258D01*
X008497Y003258D01*
X008497Y003514D02*
X009131Y003514D01*
X009375Y003220D01*
X009045Y002740D02*
X008793Y003002D01*
X008497Y003002D01*
X008647Y002647D02*
X008143Y002647D01*
X007631Y002647D02*
X007631Y002434D01*
X007905Y002160D01*
X008135Y002160D01*
X008275Y002020D01*
X008275Y001627D01*
X008183Y001620D01*
X007395Y001620D02*
X007395Y002130D01*
X007375Y002190D01*
X007375Y002647D01*
X007119Y002647D02*
X007119Y002464D01*
X007025Y002320D01*
X006275Y002320D01*
X005983Y002647D02*
X005755Y002100D01*
X005983Y002647D02*
X006608Y002647D01*
X008647Y002647D02*
X008675Y002620D01*
X009045Y002740D02*
X009045Y001644D01*
X008970Y001620D01*
X012425Y003720D02*
X012825Y004510D01*
X012825Y004770D01*
X012675Y004920D01*
X012825Y004510D02*
X012825Y004506D01*
X014675Y004590D02*
X014895Y004370D01*
X015178Y004370D01*
X015184Y004364D01*
X014675Y004590D02*
X014675Y005620D01*
X014255Y006040D01*
X007075Y006040D01*
X006995Y005960D01*
X006195Y005600D02*
X006039Y005760D01*
X005689Y005770D01*
X003806Y002120D02*
X003596Y001970D01*
X013205Y002610D02*
X014363Y002606D01*
X014556Y002770D01*
X014436Y002740D01*
X014436Y003459D01*
X015012Y002996D02*
X015175Y003160D01*
X015175Y003451D01*
X015184Y003459D01*
X015839Y003520D02*
X016005Y003506D01*
X015895Y003515D01*
X015895Y002770D01*
X015839Y002675D01*
X015825Y002420D01*
X015489Y002083D01*
X015589Y001870D01*
X016115Y001870D02*
X016915Y001760D01*
X016465Y002480D02*
X016565Y002540D01*
X016715Y002840D01*
X016715Y003100D01*
X016875Y003090D01*
X016475Y003520D02*
X015839Y003520D01*
X016475Y003520D02*
X016525Y003570D01*
X016525Y005370D01*
X015012Y002996D02*
X015012Y002326D01*
X014675Y001970D01*
X014762Y001870D01*
X014039Y001870D01*
D26*
X013702Y001848D02*
X013252Y001848D01*
X013252Y001830D02*
X013252Y001909D01*
X013568Y001909D01*
X013568Y002175D01*
X013610Y002175D01*
X013680Y002245D01*
X013680Y002438D01*
X014160Y002437D01*
X014160Y002365D01*
X014231Y002295D01*
X014749Y002295D01*
X014739Y002285D01*
X014496Y002285D01*
X014425Y002214D01*
X014425Y002039D01*
X014375Y002039D01*
X014375Y002214D01*
X014305Y002285D01*
X013772Y002285D01*
X013702Y002214D01*
X013702Y001525D01*
X013772Y001454D01*
X014305Y001454D01*
X014375Y001525D01*
X014375Y001700D01*
X014425Y001700D01*
X014425Y001525D01*
X014496Y001454D01*
X015028Y001454D01*
X015098Y001525D01*
X015098Y002170D01*
X015134Y002208D01*
X015182Y002256D01*
X015182Y002259D01*
X015184Y002261D01*
X015182Y002329D01*
X015182Y002926D01*
X015246Y002990D01*
X015345Y003089D01*
X015345Y003162D01*
X015351Y003162D01*
X015422Y003232D01*
X015422Y003686D01*
X015351Y003756D01*
X015016Y003756D01*
X015010Y003750D01*
X014982Y003766D01*
X014946Y003776D01*
X014829Y003776D01*
X014829Y003478D01*
X014790Y003478D01*
X014790Y003776D01*
X014673Y003776D01*
X014637Y003766D01*
X014609Y003750D01*
X014603Y003756D01*
X014293Y003756D01*
X014293Y003793D01*
X014245Y003910D01*
X014155Y003999D01*
X014042Y004046D01*
X014196Y004200D01*
X014197Y004200D01*
X014197Y004138D01*
X014268Y004067D01*
X014603Y004067D01*
X014674Y004138D01*
X014674Y004351D01*
X014725Y004299D01*
X014825Y004200D01*
X014945Y004200D01*
X014945Y004138D01*
X015016Y004067D01*
X015351Y004067D01*
X015422Y004138D01*
X015422Y004591D01*
X015351Y004662D01*
X015016Y004662D01*
X014945Y004591D01*
X014945Y004560D01*
X014845Y004660D01*
X014845Y004707D01*
X014868Y004694D01*
X014904Y004684D01*
X015099Y004684D01*
X015099Y005079D01*
X015179Y005079D01*
X015179Y005080D02*
X015179Y005159D01*
X015495Y005159D01*
X015495Y005433D01*
X015486Y005469D01*
X015467Y005501D01*
X015441Y005527D01*
X015409Y005545D01*
X015374Y005555D01*
X015179Y005555D01*
X015179Y005160D01*
X015099Y005160D01*
X015099Y005555D01*
X014904Y005555D01*
X014868Y005545D01*
X014845Y005532D01*
X014845Y005690D01*
X014746Y005789D01*
X014486Y006050D01*
X017167Y006050D01*
X017167Y003465D01*
X016661Y003465D01*
X016695Y003499D01*
X016695Y003640D01*
X016695Y005096D01*
X016705Y005100D01*
X016795Y005189D01*
X016843Y005306D01*
X016843Y005433D01*
X016795Y005550D01*
X016705Y005639D01*
X016589Y005688D01*
X016462Y005688D01*
X016345Y005639D01*
X016256Y005550D01*
X016207Y005433D01*
X016207Y005306D01*
X016256Y005189D01*
X016345Y005100D01*
X016355Y005096D01*
X016355Y004679D01*
X016355Y004680D01*
X016319Y004689D01*
X016045Y004689D01*
X016045Y004373D01*
X015965Y004373D01*
X015965Y004293D01*
X015570Y004293D01*
X015570Y004098D01*
X015580Y004062D01*
X015598Y004030D01*
X015624Y004004D01*
X015656Y003986D01*
X015692Y003976D01*
X015965Y003976D01*
X015965Y004293D01*
X016045Y004293D01*
X016045Y003976D01*
X016319Y003976D01*
X016355Y003986D01*
X016355Y003838D01*
X016350Y003843D01*
X015660Y003843D01*
X015590Y003772D01*
X015590Y003244D01*
X015569Y003244D01*
X015499Y003174D01*
X015499Y002365D01*
X015515Y002350D01*
X015450Y002285D01*
X015322Y002285D01*
X015252Y002214D01*
X015252Y001525D01*
X015322Y001454D01*
X015855Y001454D01*
X015925Y001525D01*
X015925Y001610D01*
X015935Y001600D01*
X016052Y001551D01*
X016179Y001551D01*
X016295Y001600D01*
X016360Y001664D01*
X016539Y001640D01*
X016539Y001454D01*
X016610Y001384D01*
X017167Y001384D01*
X017167Y001359D01*
X010960Y001359D01*
X010960Y001580D01*
X010585Y001580D01*
X010585Y001659D01*
X010960Y001659D01*
X010960Y001914D01*
X010955Y001934D01*
X011043Y001934D01*
X011113Y002005D01*
X011125Y002005D01*
X011127Y002000D02*
X011145Y001969D01*
X011171Y001942D01*
X011203Y001924D01*
X011239Y001914D01*
X011356Y001914D01*
X011356Y002370D01*
X011117Y002370D01*
X011117Y002036D01*
X011127Y002000D01*
X011113Y002005D02*
X011113Y002767D01*
X011131Y002784D01*
X011127Y002778D01*
X011117Y002742D01*
X011117Y002408D01*
X011356Y002408D01*
X011356Y002370D01*
X011394Y002370D01*
X011394Y001914D01*
X011512Y001914D01*
X011547Y001924D01*
X011579Y001942D01*
X011605Y001969D01*
X011624Y002000D01*
X011633Y002036D01*
X011633Y002370D01*
X011395Y002370D01*
X011395Y002408D01*
X011633Y002408D01*
X011633Y002690D01*
X012028Y002316D01*
X012027Y002313D01*
X012027Y002186D01*
X012076Y002069D01*
X012165Y001980D01*
X012282Y001931D01*
X012409Y001931D01*
X012525Y001980D01*
X012615Y002069D01*
X012663Y002186D01*
X012663Y002313D01*
X012659Y002323D01*
X012730Y002394D01*
X012730Y002245D01*
X012801Y002175D01*
X012855Y002175D01*
X012855Y001909D01*
X013172Y001909D01*
X013172Y001830D01*
X012855Y001830D01*
X012855Y001556D01*
X012865Y001520D01*
X012883Y001488D01*
X012909Y001462D01*
X012941Y001444D01*
X012977Y001434D01*
X013172Y001434D01*
X013172Y001829D01*
X013252Y001829D01*
X013252Y001434D01*
X013447Y001434D01*
X013482Y001444D01*
X013514Y001462D01*
X013540Y001488D01*
X013559Y001520D01*
X013568Y001556D01*
X013568Y001830D01*
X013252Y001830D01*
X013252Y001769D02*
X013172Y001769D01*
X013172Y001691D02*
X013252Y001691D01*
X013252Y001612D02*
X013172Y001612D01*
X013172Y001534D02*
X013252Y001534D01*
X013252Y001455D02*
X013172Y001455D01*
X013502Y001455D02*
X013771Y001455D01*
X013702Y001534D02*
X013562Y001534D01*
X013568Y001612D02*
X013702Y001612D01*
X013702Y001691D02*
X013568Y001691D01*
X013568Y001769D02*
X013702Y001769D01*
X013702Y001926D02*
X013568Y001926D01*
X013568Y002005D02*
X013702Y002005D01*
X013702Y002084D02*
X013568Y002084D01*
X013568Y002162D02*
X013702Y002162D01*
X013676Y002241D02*
X013728Y002241D01*
X013680Y002319D02*
X014207Y002319D01*
X014160Y002398D02*
X013680Y002398D01*
X014349Y002241D02*
X014451Y002241D01*
X014425Y002162D02*
X014375Y002162D01*
X014375Y002084D02*
X014425Y002084D01*
X014425Y001691D02*
X014375Y001691D01*
X014375Y001612D02*
X014425Y001612D01*
X014425Y001534D02*
X014375Y001534D01*
X014306Y001455D02*
X014495Y001455D01*
X015029Y001455D02*
X015321Y001455D01*
X015252Y001534D02*
X015098Y001534D01*
X015098Y001612D02*
X015252Y001612D01*
X015252Y001691D02*
X015098Y001691D01*
X015098Y001769D02*
X015252Y001769D01*
X015252Y001848D02*
X015098Y001848D01*
X015098Y001926D02*
X015252Y001926D01*
X015252Y002005D02*
X015098Y002005D01*
X015098Y002084D02*
X015252Y002084D01*
X015252Y002162D02*
X015098Y002162D01*
X015167Y002241D02*
X015278Y002241D01*
X015182Y002319D02*
X015485Y002319D01*
X015499Y002398D02*
X015182Y002398D01*
X015182Y002476D02*
X015499Y002476D01*
X015499Y002555D02*
X015182Y002555D01*
X015182Y002633D02*
X015499Y002633D01*
X015499Y002712D02*
X015182Y002712D01*
X015182Y002790D02*
X015499Y002790D01*
X015499Y002869D02*
X015182Y002869D01*
X015204Y002947D02*
X015499Y002947D01*
X015499Y003026D02*
X015282Y003026D01*
X015345Y003105D02*
X015499Y003105D01*
X015509Y003183D02*
X015373Y003183D01*
X015422Y003262D02*
X015590Y003262D01*
X015590Y003340D02*
X015422Y003340D01*
X015422Y003419D02*
X015590Y003419D01*
X015590Y003497D02*
X015422Y003497D01*
X015422Y003576D02*
X015590Y003576D01*
X015590Y003654D02*
X015422Y003654D01*
X015374Y003733D02*
X015590Y003733D01*
X015629Y003811D02*
X014286Y003811D01*
X014253Y003890D02*
X016355Y003890D01*
X016355Y003969D02*
X014186Y003969D01*
X014209Y004126D02*
X014122Y004126D01*
X014043Y004047D02*
X015588Y004047D01*
X015570Y004126D02*
X015410Y004126D01*
X015422Y004204D02*
X015570Y004204D01*
X015570Y004283D02*
X015422Y004283D01*
X015422Y004361D02*
X015965Y004361D01*
X015965Y004373D02*
X015570Y004373D01*
X015570Y004568D01*
X015580Y004603D01*
X015598Y004635D01*
X015624Y004661D01*
X015656Y004680D01*
X015692Y004689D01*
X015965Y004689D01*
X015965Y004373D01*
X015965Y004440D02*
X016045Y004440D01*
X016045Y004518D02*
X015965Y004518D01*
X015965Y004597D02*
X016045Y004597D01*
X016045Y004675D02*
X015965Y004675D01*
X015648Y004675D02*
X014845Y004675D01*
X014908Y004597D02*
X014951Y004597D01*
X015099Y004754D02*
X015179Y004754D01*
X015179Y004684D02*
X015374Y004684D01*
X015409Y004694D01*
X015441Y004712D01*
X015467Y004738D01*
X015486Y004770D01*
X015495Y004806D01*
X015495Y005080D01*
X015179Y005080D01*
X015179Y005079D02*
X015179Y004684D01*
X015179Y004833D02*
X015099Y004833D01*
X015099Y004911D02*
X015179Y004911D01*
X015179Y004990D02*
X015099Y004990D01*
X015099Y005068D02*
X015179Y005068D01*
X015179Y005147D02*
X016298Y005147D01*
X016241Y005225D02*
X015495Y005225D01*
X015495Y005304D02*
X016208Y005304D01*
X016207Y005382D02*
X015495Y005382D01*
X015488Y005461D02*
X016219Y005461D01*
X016251Y005539D02*
X015419Y005539D01*
X015179Y005539D02*
X015099Y005539D01*
X015099Y005461D02*
X015179Y005461D01*
X015179Y005382D02*
X015099Y005382D01*
X015099Y005304D02*
X015179Y005304D01*
X015179Y005225D02*
X015099Y005225D01*
X015495Y005068D02*
X016355Y005068D01*
X016355Y004990D02*
X015495Y004990D01*
X015495Y004911D02*
X016355Y004911D01*
X016355Y004833D02*
X015495Y004833D01*
X015476Y004754D02*
X016355Y004754D01*
X016695Y004754D02*
X017167Y004754D01*
X017167Y004833D02*
X016695Y004833D01*
X016695Y004911D02*
X017167Y004911D01*
X017167Y004990D02*
X016695Y004990D01*
X016695Y005068D02*
X017167Y005068D01*
X017167Y005147D02*
X016752Y005147D01*
X016810Y005225D02*
X017167Y005225D01*
X017167Y005304D02*
X016842Y005304D01*
X016843Y005382D02*
X017167Y005382D01*
X017167Y005461D02*
X016832Y005461D01*
X016799Y005539D02*
X017167Y005539D01*
X017167Y005618D02*
X016727Y005618D01*
X016324Y005618D02*
X014845Y005618D01*
X014845Y005539D02*
X014858Y005539D01*
X014839Y005696D02*
X017167Y005696D01*
X017167Y005775D02*
X014760Y005775D01*
X014682Y005854D02*
X017167Y005854D01*
X017167Y005932D02*
X014603Y005932D01*
X014524Y006011D02*
X017167Y006011D01*
X017167Y004675D02*
X016695Y004675D01*
X016695Y004597D02*
X017167Y004597D01*
X017167Y004518D02*
X016695Y004518D01*
X016695Y004440D02*
X017167Y004440D01*
X017167Y004361D02*
X016695Y004361D01*
X016695Y004283D02*
X017167Y004283D01*
X017167Y004204D02*
X016695Y004204D01*
X016695Y004126D02*
X017167Y004126D01*
X017167Y004047D02*
X016695Y004047D01*
X016695Y003969D02*
X017167Y003969D01*
X017167Y003890D02*
X016695Y003890D01*
X016695Y003811D02*
X017167Y003811D01*
X017167Y003733D02*
X016695Y003733D01*
X016695Y003654D02*
X017167Y003654D01*
X017167Y003576D02*
X016695Y003576D01*
X016693Y003497D02*
X017167Y003497D01*
X016355Y003986D02*
X016355Y003986D01*
X016045Y004047D02*
X015965Y004047D01*
X015965Y004126D02*
X016045Y004126D01*
X016045Y004204D02*
X015965Y004204D01*
X015965Y004283D02*
X016045Y004283D01*
X015570Y004440D02*
X015422Y004440D01*
X015422Y004518D02*
X015570Y004518D01*
X015578Y004597D02*
X015416Y004597D01*
X014742Y004283D02*
X014674Y004283D01*
X014674Y004204D02*
X014820Y004204D01*
X014957Y004126D02*
X014662Y004126D01*
X014790Y003733D02*
X014829Y003733D01*
X014829Y003654D02*
X014790Y003654D01*
X014790Y003576D02*
X014829Y003576D01*
X014829Y003497D02*
X014790Y003497D01*
X012605Y003450D02*
X012525Y003370D01*
X012525Y002670D01*
X012419Y002563D01*
X012409Y002568D01*
X012282Y002568D01*
X012264Y002560D01*
X011703Y003092D01*
X011656Y003139D01*
X011653Y003139D01*
X011651Y003141D01*
X011583Y003139D01*
X011005Y003139D01*
X010905Y003040D01*
X010709Y002844D01*
X010707Y002844D01*
X010637Y002773D01*
X010637Y002035D01*
X010633Y002035D01*
X010633Y002036D01*
X010633Y002370D01*
X010395Y002370D01*
X010395Y002408D01*
X010633Y002408D01*
X010633Y002742D01*
X010624Y002778D01*
X010605Y002810D01*
X010579Y002836D01*
X010547Y002854D01*
X010512Y002864D01*
X010394Y002864D01*
X010394Y002408D01*
X010356Y002408D01*
X010356Y002370D01*
X010117Y002370D01*
X009895Y002370D01*
X009895Y002408D01*
X010117Y002408D01*
X010356Y002408D01*
X010356Y002864D01*
X010239Y002864D01*
X010203Y002854D01*
X010171Y002836D01*
X010145Y002810D01*
X010127Y002778D01*
X010125Y002772D01*
X010124Y002778D01*
X010105Y002810D01*
X010079Y002836D01*
X010047Y002854D01*
X010012Y002864D01*
X009894Y002864D01*
X009894Y002408D01*
X009856Y002408D01*
X009856Y002864D01*
X009739Y002864D01*
X009703Y002854D01*
X009671Y002836D01*
X009645Y002810D01*
X009627Y002778D01*
X009617Y002742D01*
X009617Y002669D01*
X009401Y002901D01*
X009439Y002901D01*
X009555Y002950D01*
X009645Y003039D01*
X009693Y003156D01*
X009693Y003283D01*
X009645Y003400D01*
X009555Y003489D01*
X009439Y003538D01*
X009332Y003538D01*
X009301Y003575D01*
X009301Y003584D01*
X009286Y003600D01*
X009652Y003600D01*
X009915Y003321D01*
X009907Y003303D01*
X009907Y003176D01*
X009956Y003059D01*
X010045Y002970D01*
X010162Y002921D01*
X010289Y002921D01*
X010405Y002970D01*
X010495Y003059D01*
X010543Y003176D01*
X010543Y003303D01*
X010495Y003420D01*
X010405Y003509D01*
X010395Y003513D01*
X010395Y003899D01*
X010832Y004336D01*
X011660Y004336D01*
X011660Y004240D01*
X011730Y004170D01*
X012420Y004170D01*
X012450Y004200D01*
X012469Y004181D01*
X012396Y004038D01*
X012362Y004038D01*
X012245Y003989D01*
X012156Y003900D01*
X012107Y003783D01*
X012107Y003656D01*
X012156Y003539D01*
X012245Y003450D01*
X012362Y003401D01*
X012489Y003401D01*
X012605Y003450D01*
X012574Y003419D02*
X012530Y003419D01*
X012525Y003340D02*
X010528Y003340D01*
X010543Y003262D02*
X012525Y003262D01*
X012525Y003183D02*
X010543Y003183D01*
X010514Y003105D02*
X010970Y003105D01*
X010891Y003026D02*
X010462Y003026D01*
X010351Y002947D02*
X010813Y002947D01*
X010734Y002869D02*
X009431Y002869D01*
X009504Y002790D02*
X009634Y002790D01*
X009617Y002712D02*
X009577Y002712D01*
X009856Y002712D02*
X009894Y002712D01*
X009894Y002790D02*
X009856Y002790D01*
X009856Y002633D02*
X009894Y002633D01*
X009894Y002555D02*
X009856Y002555D01*
X009856Y002476D02*
X009894Y002476D01*
X009895Y002398D02*
X010356Y002398D01*
X010395Y002398D02*
X010637Y002398D01*
X010633Y002476D02*
X010637Y002476D01*
X010633Y002555D02*
X010637Y002555D01*
X010633Y002633D02*
X010637Y002633D01*
X010633Y002712D02*
X010637Y002712D01*
X010654Y002790D02*
X010617Y002790D01*
X010394Y002790D02*
X010356Y002790D01*
X010356Y002712D02*
X010394Y002712D01*
X010394Y002633D02*
X010356Y002633D01*
X010356Y002555D02*
X010394Y002555D01*
X010394Y002476D02*
X010356Y002476D01*
X010633Y002319D02*
X010637Y002319D01*
X010633Y002241D02*
X010637Y002241D01*
X010633Y002162D02*
X010637Y002162D01*
X010633Y002084D02*
X010637Y002084D01*
X010957Y001926D02*
X011199Y001926D01*
X011356Y001926D02*
X011394Y001926D01*
X011394Y002005D02*
X011356Y002005D01*
X011356Y002084D02*
X011394Y002084D01*
X011394Y002162D02*
X011356Y002162D01*
X011356Y002241D02*
X011394Y002241D01*
X011394Y002319D02*
X011356Y002319D01*
X011356Y002398D02*
X011113Y002398D01*
X011113Y002476D02*
X011117Y002476D01*
X011113Y002555D02*
X011117Y002555D01*
X011113Y002633D02*
X011117Y002633D01*
X011113Y002712D02*
X011117Y002712D01*
X011395Y002398D02*
X011942Y002398D01*
X012025Y002319D02*
X011633Y002319D01*
X011633Y002241D02*
X012027Y002241D01*
X012037Y002162D02*
X011633Y002162D01*
X011633Y002084D02*
X012070Y002084D01*
X012140Y002005D02*
X011625Y002005D01*
X011552Y001926D02*
X012855Y001926D01*
X012855Y002005D02*
X012551Y002005D01*
X012621Y002084D02*
X012855Y002084D01*
X012855Y002162D02*
X012653Y002162D01*
X012663Y002241D02*
X012735Y002241D01*
X012730Y002319D02*
X012661Y002319D01*
X012489Y002633D02*
X012187Y002633D01*
X012104Y002712D02*
X012525Y002712D01*
X012525Y002790D02*
X012021Y002790D01*
X011939Y002869D02*
X012525Y002869D01*
X012525Y002947D02*
X011856Y002947D01*
X011773Y003026D02*
X012525Y003026D01*
X012525Y003105D02*
X011691Y003105D01*
X011693Y002633D02*
X011633Y002633D01*
X011633Y002555D02*
X011776Y002555D01*
X011859Y002476D02*
X011633Y002476D01*
X011117Y002319D02*
X011113Y002319D01*
X011113Y002241D02*
X011117Y002241D01*
X011113Y002162D02*
X011117Y002162D01*
X011113Y002084D02*
X011117Y002084D01*
X010960Y001848D02*
X013172Y001848D01*
X012855Y001769D02*
X010960Y001769D01*
X010960Y001691D02*
X012855Y001691D01*
X012855Y001612D02*
X010585Y001612D01*
X010960Y001534D02*
X012861Y001534D01*
X012922Y001455D02*
X010960Y001455D01*
X010960Y001377D02*
X017167Y001377D01*
X016539Y001455D02*
X015856Y001455D01*
X015925Y001534D02*
X016539Y001534D01*
X016539Y001612D02*
X016308Y001612D01*
X012320Y003419D02*
X010495Y003419D01*
X010417Y003497D02*
X012198Y003497D01*
X012140Y003576D02*
X010395Y003576D01*
X010395Y003654D02*
X012108Y003654D01*
X012107Y003733D02*
X010395Y003733D01*
X010395Y003811D02*
X012119Y003811D01*
X012152Y003890D02*
X010395Y003890D01*
X010465Y003969D02*
X012224Y003969D01*
X012401Y004047D02*
X010543Y004047D01*
X010622Y004126D02*
X012440Y004126D01*
X011696Y004204D02*
X010700Y004204D01*
X010779Y004283D02*
X011660Y004283D01*
X011660Y004676D02*
X011045Y004676D01*
X011045Y004716D01*
X011113Y004784D01*
X011113Y005553D01*
X011043Y005623D01*
X010707Y005623D01*
X010637Y005553D01*
X010637Y004784D01*
X010705Y004716D01*
X010705Y004704D01*
X010636Y004621D01*
X010155Y004139D01*
X010055Y004040D01*
X010055Y003667D01*
X009895Y003837D01*
X009895Y003840D01*
X009847Y003888D01*
X009801Y003937D01*
X009798Y003937D01*
X009796Y003939D01*
X009728Y003939D01*
X009660Y003941D01*
X009658Y003939D01*
X008809Y003939D01*
X008814Y003958D01*
X008814Y004025D01*
X008498Y004025D01*
X008498Y004026D01*
X008814Y004026D01*
X008814Y004092D01*
X008912Y004051D01*
X009039Y004051D01*
X009155Y004100D01*
X009245Y004189D01*
X009293Y004306D01*
X009293Y004433D01*
X009245Y004550D01*
X009185Y004609D01*
X009265Y004689D01*
X009313Y004806D01*
X009313Y004933D01*
X009286Y004999D01*
X009357Y004999D01*
X009637Y004999D01*
X009637Y004784D01*
X009707Y004714D01*
X010043Y004714D01*
X010113Y004784D01*
X010113Y005553D01*
X010043Y005623D01*
X009707Y005623D01*
X009637Y005553D01*
X009637Y005339D01*
X009357Y005339D01*
X009325Y005370D01*
X009226Y005469D01*
X008786Y005469D01*
X008761Y005469D01*
X008669Y005508D01*
X008542Y005508D01*
X008425Y005459D01*
X008413Y005447D01*
X008394Y005439D01*
X007705Y005439D01*
X007605Y005340D01*
X007547Y005282D01*
X007545Y005284D01*
X007545Y005290D01*
X007499Y005336D01*
X007165Y005714D01*
X007165Y005870D01*
X014185Y005870D01*
X014505Y005549D01*
X014505Y005535D01*
X014046Y005535D01*
X013975Y005464D01*
X013975Y005289D01*
X013777Y005289D01*
X013743Y005312D01*
X013743Y005383D01*
X013695Y005500D01*
X013605Y005589D01*
X013489Y005638D01*
X013362Y005638D01*
X013245Y005589D01*
X013241Y005585D01*
X013241Y005599D01*
X013170Y005669D01*
X012480Y005669D01*
X012450Y005639D01*
X012420Y005669D01*
X011730Y005669D01*
X011660Y005599D01*
X011660Y005089D01*
X011613Y005089D01*
X011613Y005553D01*
X011543Y005623D01*
X011207Y005623D01*
X011137Y005553D01*
X011137Y004784D01*
X011207Y004714D01*
X011543Y004714D01*
X011579Y004750D01*
X011660Y004750D01*
X011660Y004676D01*
X011167Y004754D02*
X011083Y004754D01*
X011113Y004833D02*
X011137Y004833D01*
X011137Y004911D02*
X011113Y004911D01*
X011113Y004990D02*
X011137Y004990D01*
X011137Y005068D02*
X011113Y005068D01*
X011113Y005147D02*
X011137Y005147D01*
X011137Y005225D02*
X011113Y005225D01*
X011113Y005304D02*
X011137Y005304D01*
X011137Y005382D02*
X011113Y005382D01*
X011113Y005461D02*
X011137Y005461D01*
X011137Y005539D02*
X011113Y005539D01*
X011048Y005618D02*
X011202Y005618D01*
X011548Y005618D02*
X011679Y005618D01*
X011660Y005539D02*
X011613Y005539D01*
X011613Y005461D02*
X011660Y005461D01*
X011660Y005382D02*
X011613Y005382D01*
X011613Y005304D02*
X011660Y005304D01*
X011660Y005225D02*
X011613Y005225D01*
X011613Y005147D02*
X011660Y005147D01*
X010702Y005618D02*
X010575Y005618D01*
X010579Y005615D02*
X010547Y005634D01*
X010512Y005643D01*
X010394Y005643D01*
X010394Y005188D01*
X010356Y005188D01*
X010356Y005643D01*
X010239Y005643D01*
X010203Y005634D01*
X010171Y005615D01*
X010145Y005589D01*
X010127Y005557D01*
X010117Y005522D01*
X010117Y005188D01*
X010356Y005188D01*
X010356Y005150D01*
X010117Y005150D01*
X010117Y004816D01*
X010127Y004780D01*
X010145Y004748D01*
X010171Y004722D01*
X010203Y004704D01*
X010239Y004694D01*
X010356Y004694D01*
X010356Y005149D01*
X010394Y005149D01*
X010394Y004694D01*
X010512Y004694D01*
X010547Y004704D01*
X010579Y004722D01*
X010605Y004748D01*
X010624Y004780D01*
X010633Y004816D01*
X010633Y005150D01*
X010395Y005150D01*
X010395Y005188D01*
X010633Y005188D01*
X010633Y005522D01*
X010624Y005557D01*
X010605Y005589D01*
X010579Y005615D01*
X010629Y005539D02*
X010637Y005539D01*
X010633Y005461D02*
X010637Y005461D01*
X010633Y005382D02*
X010637Y005382D01*
X010633Y005304D02*
X010637Y005304D01*
X010633Y005225D02*
X010637Y005225D01*
X010633Y005147D02*
X010637Y005147D01*
X010633Y005068D02*
X010637Y005068D01*
X010633Y004990D02*
X010637Y004990D01*
X010633Y004911D02*
X010637Y004911D01*
X010633Y004833D02*
X010637Y004833D01*
X010609Y004754D02*
X010667Y004754D01*
X010682Y004675D02*
X009251Y004675D01*
X009292Y004754D02*
X009667Y004754D01*
X009637Y004833D02*
X009313Y004833D01*
X009313Y004911D02*
X009637Y004911D01*
X009637Y004990D02*
X009290Y004990D01*
X009313Y005382D02*
X009637Y005382D01*
X009637Y005461D02*
X009234Y005461D01*
X009637Y005539D02*
X007319Y005539D01*
X007389Y005461D02*
X008429Y005461D01*
X007648Y005382D02*
X007458Y005382D01*
X007531Y005304D02*
X007569Y005304D01*
X007250Y005618D02*
X009702Y005618D01*
X010048Y005618D02*
X010176Y005618D01*
X010122Y005539D02*
X010113Y005539D01*
X010113Y005461D02*
X010117Y005461D01*
X010113Y005382D02*
X010117Y005382D01*
X010113Y005304D02*
X010117Y005304D01*
X010113Y005225D02*
X010117Y005225D01*
X010113Y005147D02*
X010117Y005147D01*
X010113Y005068D02*
X010117Y005068D01*
X010113Y004990D02*
X010117Y004990D01*
X010113Y004911D02*
X010117Y004911D01*
X010113Y004833D02*
X010117Y004833D01*
X010142Y004754D02*
X010083Y004754D01*
X010356Y004754D02*
X010394Y004754D01*
X010394Y004833D02*
X010356Y004833D01*
X010356Y004911D02*
X010394Y004911D01*
X010394Y004990D02*
X010356Y004990D01*
X010356Y005068D02*
X010394Y005068D01*
X010394Y005147D02*
X010356Y005147D01*
X010356Y005225D02*
X010394Y005225D01*
X010394Y005304D02*
X010356Y005304D01*
X010356Y005382D02*
X010394Y005382D01*
X010394Y005461D02*
X010356Y005461D01*
X010356Y005539D02*
X010394Y005539D01*
X010394Y005618D02*
X010356Y005618D01*
X010612Y004597D02*
X009198Y004597D01*
X009258Y004518D02*
X010534Y004518D01*
X010455Y004440D02*
X009290Y004440D01*
X009293Y004361D02*
X010377Y004361D01*
X010298Y004283D02*
X009284Y004283D01*
X009251Y004204D02*
X010220Y004204D01*
X010141Y004126D02*
X009181Y004126D01*
X008814Y004047D02*
X010062Y004047D01*
X010055Y003969D02*
X008814Y003969D01*
X009301Y003576D02*
X009674Y003576D01*
X009748Y003497D02*
X009536Y003497D01*
X009626Y003419D02*
X009822Y003419D01*
X009897Y003340D02*
X009670Y003340D01*
X009693Y003262D02*
X009907Y003262D01*
X009907Y003183D02*
X009693Y003183D01*
X009672Y003105D02*
X009937Y003105D01*
X009989Y003026D02*
X009632Y003026D01*
X009550Y002947D02*
X010099Y002947D01*
X010117Y002790D02*
X010134Y002790D01*
X010055Y003733D02*
X009993Y003733D01*
X010055Y003811D02*
X009919Y003811D01*
X009845Y003890D02*
X010055Y003890D01*
X007120Y002647D02*
X007120Y002384D01*
X007119Y002383D01*
X007119Y002647D01*
X007120Y002647D01*
X007119Y002633D02*
X007120Y002633D01*
X007119Y002555D02*
X007120Y002555D01*
X007119Y002476D02*
X007120Y002476D01*
X007119Y002398D02*
X007120Y002398D01*
X007089Y002330D02*
X007052Y002330D01*
X007014Y002341D01*
X006979Y002361D01*
X006977Y002362D01*
X006965Y002350D01*
X006762Y002350D01*
X006735Y002376D01*
X006709Y002350D01*
X006506Y002350D01*
X006429Y002428D01*
X006429Y002477D01*
X006097Y002477D01*
X006085Y002451D01*
X006131Y002405D01*
X006131Y001794D01*
X006061Y001724D01*
X005554Y001724D01*
X005554Y001723D01*
X005564Y001659D01*
X004865Y001659D01*
X004865Y001580D01*
X005564Y001580D01*
X005554Y001516D01*
X005533Y001451D01*
X005502Y001389D01*
X005480Y001359D01*
X007000Y001359D01*
X007000Y001945D01*
X007070Y002015D01*
X007103Y002015D01*
X007057Y002126D01*
X007057Y002253D01*
X007089Y002330D01*
X007085Y002319D02*
X006131Y002319D01*
X006131Y002241D02*
X007057Y002241D01*
X007057Y002162D02*
X006131Y002162D01*
X006131Y002084D02*
X007075Y002084D01*
X007060Y002005D02*
X006131Y002005D01*
X006131Y001926D02*
X007000Y001926D01*
X007000Y001848D02*
X006131Y001848D01*
X006107Y001769D02*
X007000Y001769D01*
X007000Y001691D02*
X005559Y001691D01*
X005557Y001534D02*
X007000Y001534D01*
X007000Y001612D02*
X004865Y001612D01*
X004865Y001660D02*
X004785Y001660D01*
X004785Y002059D01*
X004491Y002059D01*
X004422Y002049D01*
X004356Y002027D01*
X004295Y001996D01*
X004239Y001955D01*
X004190Y001906D01*
X004169Y001878D01*
X004169Y002382D01*
X004169Y002382D01*
X004287Y002263D01*
X004442Y002200D01*
X005209Y002200D01*
X005363Y002263D01*
X005379Y002280D01*
X005379Y001979D01*
X005356Y001996D01*
X005294Y002027D01*
X005228Y002049D01*
X005160Y002059D01*
X004865Y002059D01*
X004865Y001660D01*
X004865Y001691D02*
X004785Y001691D01*
X004785Y001659D02*
X004785Y001580D01*
X004169Y001580D01*
X004169Y001659D01*
X004785Y001659D01*
X004785Y001612D02*
X004169Y001612D01*
X004112Y001469D02*
X004118Y001451D01*
X004149Y001389D01*
X004170Y001359D01*
X000825Y001359D01*
X000825Y001436D01*
X001194Y001436D01*
X001194Y001929D01*
X001274Y001929D01*
X001274Y001436D01*
X001705Y001436D01*
X001741Y001445D01*
X001773Y001464D01*
X001799Y001490D01*
X001817Y001522D01*
X001827Y001557D01*
X001827Y001930D01*
X001274Y001930D01*
X001274Y002009D01*
X001827Y002009D01*
X001827Y002088D01*
X001905Y002009D01*
X002005Y001910D01*
X003024Y001910D01*
X003024Y001526D01*
X003094Y001456D01*
X004099Y001456D01*
X004112Y001469D01*
X004116Y001455D02*
X001758Y001455D01*
X001821Y001534D02*
X003024Y001534D01*
X003024Y001612D02*
X001827Y001612D01*
X001827Y001691D02*
X003024Y001691D01*
X003024Y001769D02*
X001827Y001769D01*
X001827Y001848D02*
X003024Y001848D01*
X003024Y002249D02*
X002146Y002249D01*
X002085Y002310D01*
X002085Y002607D01*
X002139Y002478D01*
X002250Y002367D01*
X002396Y002306D01*
X002554Y002306D01*
X002700Y002367D01*
X002812Y002478D01*
X002872Y002624D01*
X002872Y002782D01*
X002812Y002928D01*
X002700Y003040D01*
X002554Y003101D01*
X002396Y003101D01*
X002250Y003040D01*
X002139Y002928D01*
X002085Y002799D01*
X002085Y004340D01*
X002139Y004211D01*
X002250Y004099D01*
X002396Y004039D01*
X002554Y004039D01*
X002700Y004099D01*
X002812Y004211D01*
X002872Y004357D01*
X002872Y004515D01*
X002812Y004661D01*
X002700Y004772D01*
X002554Y004833D01*
X002396Y004833D01*
X002250Y004772D01*
X002139Y004661D01*
X002085Y004532D01*
X002085Y005629D01*
X002106Y005650D01*
X003044Y005650D01*
X003044Y004826D01*
X003114Y004756D01*
X003655Y004756D01*
X003655Y004489D01*
X003972Y004489D01*
X003972Y004410D01*
X003655Y004410D01*
X003655Y004136D01*
X003661Y004113D01*
X003094Y004113D01*
X003024Y004043D01*
X003024Y003156D01*
X003094Y003086D01*
X003455Y003086D01*
X003455Y003049D01*
X003555Y002950D01*
X003655Y002850D01*
X003796Y002850D01*
X004166Y002850D01*
X004105Y002703D01*
X004105Y002536D01*
X004147Y002435D01*
X004099Y002483D01*
X003094Y002483D01*
X003024Y002413D01*
X003024Y002249D01*
X003024Y002319D02*
X002585Y002319D01*
X002731Y002398D02*
X003024Y002398D01*
X003087Y002476D02*
X002810Y002476D01*
X002844Y002555D02*
X004105Y002555D01*
X004105Y002633D02*
X002872Y002633D01*
X002872Y002712D02*
X004109Y002712D01*
X004141Y002790D02*
X002869Y002790D01*
X002837Y002869D02*
X003635Y002869D01*
X003557Y002947D02*
X002793Y002947D01*
X002714Y003026D02*
X003478Y003026D01*
X003075Y003105D02*
X002085Y003105D01*
X002085Y003183D02*
X003024Y003183D01*
X003024Y003262D02*
X002085Y003262D01*
X002085Y003340D02*
X003024Y003340D01*
X003024Y003419D02*
X002085Y003419D01*
X002085Y003497D02*
X003024Y003497D01*
X003024Y003576D02*
X002085Y003576D01*
X002085Y003654D02*
X003024Y003654D01*
X003024Y003733D02*
X002085Y003733D01*
X002085Y003811D02*
X003024Y003811D01*
X003024Y003890D02*
X002085Y003890D01*
X002085Y003969D02*
X003024Y003969D01*
X003028Y004047D02*
X002575Y004047D01*
X002727Y004126D02*
X003658Y004126D01*
X003655Y004204D02*
X002805Y004204D01*
X002842Y004283D02*
X003655Y004283D01*
X003655Y004361D02*
X002872Y004361D01*
X002872Y004440D02*
X003972Y004440D01*
X004052Y004440D02*
X004502Y004440D01*
X004502Y004518D02*
X004368Y004518D01*
X004368Y004489D02*
X004368Y004763D01*
X004359Y004799D01*
X004340Y004831D01*
X004314Y004857D01*
X004282Y004875D01*
X004247Y004885D01*
X004189Y004885D01*
X004189Y004970D01*
X005745Y004970D01*
X005805Y004909D01*
X005805Y004670D01*
X005805Y004529D01*
X005865Y004469D01*
X005947Y004388D01*
X005946Y004387D01*
X005936Y004349D01*
X005936Y004281D01*
X005936Y004214D01*
X005938Y004205D01*
X005175Y004205D01*
X005175Y004794D01*
X005105Y004865D01*
X004572Y004865D01*
X004502Y004794D01*
X004502Y004232D01*
X004489Y004238D01*
X004368Y004238D01*
X004368Y004410D01*
X004052Y004410D01*
X004052Y004489D01*
X004368Y004489D01*
X004368Y004597D02*
X004502Y004597D01*
X004502Y004675D02*
X004368Y004675D01*
X004368Y004754D02*
X004502Y004754D01*
X004540Y004833D02*
X004339Y004833D01*
X004189Y004911D02*
X005803Y004911D01*
X005805Y004833D02*
X005137Y004833D01*
X005175Y004754D02*
X005805Y004754D01*
X005805Y004675D02*
X005175Y004675D01*
X005175Y004597D02*
X005805Y004597D01*
X005816Y004518D02*
X005175Y004518D01*
X005175Y004440D02*
X005895Y004440D01*
X005939Y004361D02*
X005175Y004361D01*
X005175Y004283D02*
X005936Y004283D01*
X005936Y004281D02*
X006253Y004281D01*
X005936Y004281D01*
X006253Y004281D02*
X006253Y004281D01*
X004502Y004283D02*
X004368Y004283D01*
X004368Y004361D02*
X004502Y004361D01*
X003655Y004518D02*
X002871Y004518D01*
X002838Y004597D02*
X003655Y004597D01*
X003655Y004675D02*
X002797Y004675D01*
X002719Y004754D02*
X003655Y004754D01*
X003044Y004833D02*
X002555Y004833D01*
X002396Y004833D02*
X002085Y004833D01*
X002085Y004911D02*
X003044Y004911D01*
X003044Y004990D02*
X002085Y004990D01*
X002085Y005068D02*
X003044Y005068D01*
X003044Y005147D02*
X002085Y005147D01*
X002085Y005225D02*
X003044Y005225D01*
X003044Y005304D02*
X002085Y005304D01*
X002085Y005382D02*
X003044Y005382D01*
X003044Y005461D02*
X002085Y005461D01*
X002085Y005539D02*
X003044Y005539D01*
X003044Y005618D02*
X002085Y005618D01*
X001845Y005869D02*
X001766Y005791D01*
X001761Y005794D01*
X001725Y005803D01*
X001294Y005803D01*
X001294Y005310D01*
X001214Y005310D01*
X001214Y005803D01*
X000825Y005803D01*
X000825Y006050D01*
X004505Y006050D01*
X004505Y005809D01*
X004822Y005809D01*
X004822Y005730D01*
X004505Y005730D01*
X004505Y005509D01*
X004425Y005509D01*
X004425Y005669D01*
X004425Y005810D01*
X004345Y005890D01*
X004246Y005989D01*
X002106Y005989D01*
X001965Y005989D01*
X001845Y005869D01*
X001829Y005854D02*
X000825Y005854D01*
X000825Y005932D02*
X001907Y005932D01*
X001294Y005775D02*
X001214Y005775D01*
X001214Y005696D02*
X001294Y005696D01*
X001294Y005618D02*
X001214Y005618D01*
X001214Y005539D02*
X001294Y005539D01*
X001294Y005461D02*
X001214Y005461D01*
X001214Y005382D02*
X001294Y005382D01*
X001294Y005229D02*
X001294Y004736D01*
X001725Y004736D01*
X001745Y004741D01*
X001745Y004121D01*
X001741Y004124D01*
X001705Y004133D01*
X001274Y004133D01*
X001274Y003640D01*
X001194Y003640D01*
X001194Y004133D01*
X000825Y004133D01*
X000825Y004736D01*
X001214Y004736D01*
X001214Y005229D01*
X001294Y005229D01*
X001294Y005225D02*
X001214Y005225D01*
X001214Y005147D02*
X001294Y005147D01*
X001294Y005068D02*
X001214Y005068D01*
X001214Y004990D02*
X001294Y004990D01*
X001294Y004911D02*
X001214Y004911D01*
X001214Y004833D02*
X001294Y004833D01*
X001294Y004754D02*
X001214Y004754D01*
X000825Y004675D02*
X001745Y004675D01*
X001745Y004597D02*
X000825Y004597D01*
X000825Y004518D02*
X001745Y004518D01*
X001745Y004440D02*
X000825Y004440D01*
X000825Y004361D02*
X001745Y004361D01*
X001745Y004283D02*
X000825Y004283D01*
X000825Y004204D02*
X001745Y004204D01*
X001734Y004126D02*
X001745Y004126D01*
X002085Y004126D02*
X002224Y004126D01*
X002145Y004204D02*
X002085Y004204D01*
X002085Y004283D02*
X002109Y004283D01*
X002085Y004047D02*
X002376Y004047D01*
X002112Y004597D02*
X002085Y004597D01*
X002085Y004675D02*
X002153Y004675D01*
X002085Y004754D02*
X002232Y004754D01*
X001274Y004126D02*
X001194Y004126D01*
X001194Y004047D02*
X001274Y004047D01*
X001274Y003969D02*
X001194Y003969D01*
X001194Y003890D02*
X001274Y003890D01*
X001274Y003811D02*
X001194Y003811D01*
X001194Y003733D02*
X001274Y003733D01*
X001274Y003654D02*
X001194Y003654D01*
X001194Y003559D02*
X001274Y003559D01*
X001274Y003066D01*
X001705Y003066D01*
X001741Y003075D01*
X001745Y003078D01*
X001745Y002491D01*
X001741Y002494D01*
X001705Y002503D01*
X001274Y002503D01*
X001274Y002010D01*
X001194Y002010D01*
X001194Y002503D01*
X000825Y002503D01*
X000825Y003066D01*
X001194Y003066D01*
X001194Y003559D01*
X001194Y003497D02*
X001274Y003497D01*
X001274Y003419D02*
X001194Y003419D01*
X001194Y003340D02*
X001274Y003340D01*
X001274Y003262D02*
X001194Y003262D01*
X001194Y003183D02*
X001274Y003183D01*
X001274Y003105D02*
X001194Y003105D01*
X000825Y003026D02*
X001745Y003026D01*
X001745Y002947D02*
X000825Y002947D01*
X000825Y002869D02*
X001745Y002869D01*
X001745Y002790D02*
X000825Y002790D01*
X000825Y002712D02*
X001745Y002712D01*
X001745Y002633D02*
X000825Y002633D01*
X000825Y002555D02*
X001745Y002555D01*
X002085Y002555D02*
X002107Y002555D01*
X002085Y002476D02*
X002141Y002476D01*
X002085Y002398D02*
X002219Y002398D01*
X002085Y002319D02*
X002365Y002319D01*
X001909Y002005D02*
X001274Y002005D01*
X001274Y002084D02*
X001194Y002084D01*
X001194Y002162D02*
X001274Y002162D01*
X001274Y002241D02*
X001194Y002241D01*
X001194Y002319D02*
X001274Y002319D01*
X001274Y002398D02*
X001194Y002398D01*
X001194Y002476D02*
X001274Y002476D01*
X001827Y002084D02*
X001831Y002084D01*
X001827Y001926D02*
X001988Y001926D01*
X001274Y001926D02*
X001194Y001926D01*
X001194Y001848D02*
X001274Y001848D01*
X001274Y001769D02*
X001194Y001769D01*
X001194Y001691D02*
X001274Y001691D01*
X001274Y001612D02*
X001194Y001612D01*
X001194Y001534D02*
X001274Y001534D01*
X001274Y001455D02*
X001194Y001455D01*
X000825Y001377D02*
X004158Y001377D01*
X004785Y001769D02*
X004865Y001769D01*
X004865Y001848D02*
X004785Y001848D01*
X004785Y001926D02*
X004865Y001926D01*
X004865Y002005D02*
X004785Y002005D01*
X005338Y002005D02*
X005379Y002005D01*
X005379Y002084D02*
X004169Y002084D01*
X004169Y002162D02*
X005379Y002162D01*
X005379Y002241D02*
X005308Y002241D01*
X006096Y002476D02*
X006429Y002476D01*
X006458Y002398D02*
X006131Y002398D01*
X005534Y001455D02*
X007000Y001455D01*
X007000Y001377D02*
X005493Y001377D01*
X004313Y002005D02*
X004169Y002005D01*
X004169Y001926D02*
X004210Y001926D01*
X004169Y002241D02*
X004343Y002241D01*
X004232Y002319D02*
X004169Y002319D01*
X004130Y002476D02*
X004106Y002476D01*
X002236Y003026D02*
X002085Y003026D01*
X002085Y002947D02*
X002158Y002947D01*
X002114Y002869D02*
X002085Y002869D01*
X004425Y005539D02*
X004505Y005539D01*
X004505Y005618D02*
X004425Y005618D01*
X004425Y005696D02*
X004505Y005696D01*
X004425Y005775D02*
X004822Y005775D01*
X004902Y005775D02*
X005352Y005775D01*
X005352Y005696D02*
X005218Y005696D01*
X005218Y005730D02*
X005218Y005509D01*
X005352Y005509D01*
X005352Y006050D01*
X005218Y006050D01*
X005218Y005809D01*
X004902Y005809D01*
X004902Y005730D01*
X005218Y005730D01*
X005218Y005618D02*
X005352Y005618D01*
X005352Y005539D02*
X005218Y005539D01*
X005218Y005854D02*
X005352Y005854D01*
X005352Y005932D02*
X005218Y005932D01*
X005218Y006011D02*
X005352Y006011D01*
X004505Y006011D02*
X000825Y006011D01*
X004303Y005932D02*
X004505Y005932D01*
X004505Y005854D02*
X004382Y005854D01*
X007165Y005854D02*
X014201Y005854D01*
X014279Y005775D02*
X007165Y005775D01*
X007181Y005696D02*
X014358Y005696D01*
X014436Y005618D02*
X013536Y005618D01*
X013655Y005539D02*
X014505Y005539D01*
X013975Y005461D02*
X013711Y005461D01*
X013743Y005382D02*
X013975Y005382D01*
X013975Y005304D02*
X013755Y005304D01*
X013315Y005618D02*
X013222Y005618D01*
D27*
X010375Y002389D02*
X010375Y001789D01*
X010545Y001620D01*
X004425Y001620D02*
X004215Y001410D01*
X002815Y001410D01*
D28*
X004969Y004025D02*
X004825Y004170D01*
X004969Y004025D02*
X006253Y004025D01*
M02*
