G75*
G70*
%OFA0B0*%
%FSLAX24Y24*%
%IPPOS*%
%LPD*%
%AMOC8*
5,1,8,0,0,1.08239X$1,22.5*
%
%ADD10C,0.0000*%
%ADD11R,0.0316X0.0434*%
%ADD12C,0.0040*%
%ADD13C,0.0150*%
%ADD14C,0.0634*%
%ADD15R,0.0986X0.0867*%
%ADD16R,0.0513X0.0671*%
%ADD17C,0.0680*%
%ADD18R,0.0631X0.0789*%
%ADD19R,0.0790X0.0710*%
%ADD20R,0.0671X0.0513*%
%ADD21R,0.0316X0.0749*%
%ADD22R,0.0631X0.0631*%
%ADD23R,0.0592X0.0592*%
%ADD24C,0.0476*%
D10*
X000675Y001220D02*
X000675Y006190D01*
X017307Y006190D01*
X017307Y001220D01*
X000675Y001220D01*
D11*
X014436Y003459D03*
X014810Y003459D03*
X015184Y003459D03*
X015184Y004364D03*
X014436Y004364D03*
D12*
X008694Y004360D02*
X008300Y004360D01*
X008694Y004360D02*
X008694Y004202D01*
X008300Y004202D01*
X008300Y004360D01*
X008300Y004241D02*
X008694Y004241D01*
X008694Y004280D02*
X008300Y004280D01*
X008300Y004319D02*
X008694Y004319D01*
X008694Y004358D02*
X008300Y004358D01*
X008300Y004616D02*
X008694Y004616D01*
X008694Y004458D01*
X008300Y004458D01*
X008300Y004616D01*
X008300Y004497D02*
X008694Y004497D01*
X008694Y004536D02*
X008300Y004536D01*
X008300Y004575D02*
X008694Y004575D01*
X008694Y004614D02*
X008300Y004614D01*
X008222Y005089D02*
X008064Y005089D01*
X008222Y005089D02*
X008222Y004695D01*
X008064Y004695D01*
X008064Y005089D01*
X008064Y004734D02*
X008222Y004734D01*
X008222Y004773D02*
X008064Y004773D01*
X008064Y004812D02*
X008222Y004812D01*
X008222Y004851D02*
X008064Y004851D01*
X008064Y004890D02*
X008222Y004890D01*
X008222Y004929D02*
X008064Y004929D01*
X008064Y004968D02*
X008222Y004968D01*
X008222Y005007D02*
X008064Y005007D01*
X008064Y005046D02*
X008222Y005046D01*
X008222Y005085D02*
X008064Y005085D01*
X007966Y005089D02*
X007808Y005089D01*
X007966Y005089D02*
X007966Y004695D01*
X007808Y004695D01*
X007808Y005089D01*
X007808Y004734D02*
X007966Y004734D01*
X007966Y004773D02*
X007808Y004773D01*
X007808Y004812D02*
X007966Y004812D01*
X007966Y004851D02*
X007808Y004851D01*
X007808Y004890D02*
X007966Y004890D01*
X007966Y004929D02*
X007808Y004929D01*
X007808Y004968D02*
X007966Y004968D01*
X007966Y005007D02*
X007808Y005007D01*
X007808Y005046D02*
X007966Y005046D01*
X007966Y005085D02*
X007808Y005085D01*
X007710Y005089D02*
X007552Y005089D01*
X007710Y005089D02*
X007710Y004695D01*
X007552Y004695D01*
X007552Y005089D01*
X007552Y004734D02*
X007710Y004734D01*
X007710Y004773D02*
X007552Y004773D01*
X007552Y004812D02*
X007710Y004812D01*
X007710Y004851D02*
X007552Y004851D01*
X007552Y004890D02*
X007710Y004890D01*
X007710Y004929D02*
X007552Y004929D01*
X007552Y004968D02*
X007710Y004968D01*
X007710Y005007D02*
X007552Y005007D01*
X007552Y005046D02*
X007710Y005046D01*
X007710Y005085D02*
X007552Y005085D01*
X007454Y005089D02*
X007296Y005089D01*
X007454Y005089D02*
X007454Y004695D01*
X007296Y004695D01*
X007296Y005089D01*
X007296Y004734D02*
X007454Y004734D01*
X007454Y004773D02*
X007296Y004773D01*
X007296Y004812D02*
X007454Y004812D01*
X007454Y004851D02*
X007296Y004851D01*
X007296Y004890D02*
X007454Y004890D01*
X007454Y004929D02*
X007296Y004929D01*
X007296Y004968D02*
X007454Y004968D01*
X007454Y005007D02*
X007296Y005007D01*
X007296Y005046D02*
X007454Y005046D01*
X007454Y005085D02*
X007296Y005085D01*
X007198Y005089D02*
X007040Y005089D01*
X007198Y005089D02*
X007198Y004695D01*
X007040Y004695D01*
X007040Y005089D01*
X007040Y004734D02*
X007198Y004734D01*
X007198Y004773D02*
X007040Y004773D01*
X007040Y004812D02*
X007198Y004812D01*
X007198Y004851D02*
X007040Y004851D01*
X007040Y004890D02*
X007198Y004890D01*
X007198Y004929D02*
X007040Y004929D01*
X007040Y004968D02*
X007198Y004968D01*
X007198Y005007D02*
X007040Y005007D01*
X007040Y005046D02*
X007198Y005046D01*
X007198Y005085D02*
X007040Y005085D01*
X006942Y005089D02*
X006784Y005089D01*
X006942Y005089D02*
X006942Y004695D01*
X006784Y004695D01*
X006784Y005089D01*
X006784Y004734D02*
X006942Y004734D01*
X006942Y004773D02*
X006784Y004773D01*
X006784Y004812D02*
X006942Y004812D01*
X006942Y004851D02*
X006784Y004851D01*
X006784Y004890D02*
X006942Y004890D01*
X006942Y004929D02*
X006784Y004929D01*
X006784Y004968D02*
X006942Y004968D01*
X006942Y005007D02*
X006784Y005007D01*
X006784Y005046D02*
X006942Y005046D01*
X006942Y005085D02*
X006784Y005085D01*
X006687Y005089D02*
X006529Y005089D01*
X006687Y005089D02*
X006687Y004695D01*
X006529Y004695D01*
X006529Y005089D01*
X006529Y004734D02*
X006687Y004734D01*
X006687Y004773D02*
X006529Y004773D01*
X006529Y004812D02*
X006687Y004812D01*
X006687Y004851D02*
X006529Y004851D01*
X006529Y004890D02*
X006687Y004890D01*
X006687Y004929D02*
X006529Y004929D01*
X006529Y004968D02*
X006687Y004968D01*
X006687Y005007D02*
X006529Y005007D01*
X006529Y005046D02*
X006687Y005046D01*
X006687Y005085D02*
X006529Y005085D01*
X006450Y004616D02*
X006056Y004616D01*
X006450Y004616D02*
X006450Y004458D01*
X006056Y004458D01*
X006056Y004616D01*
X006056Y004497D02*
X006450Y004497D01*
X006450Y004536D02*
X006056Y004536D01*
X006056Y004575D02*
X006450Y004575D01*
X006450Y004614D02*
X006056Y004614D01*
X006056Y004360D02*
X006450Y004360D01*
X006450Y004202D01*
X006056Y004202D01*
X006056Y004360D01*
X006056Y004241D02*
X006450Y004241D01*
X006450Y004280D02*
X006056Y004280D01*
X006056Y004319D02*
X006450Y004319D01*
X006450Y004358D02*
X006056Y004358D01*
X006056Y004104D02*
X006450Y004104D01*
X006450Y003946D01*
X006056Y003946D01*
X006056Y004104D01*
X006056Y003985D02*
X006450Y003985D01*
X006450Y004024D02*
X006056Y004024D01*
X006056Y004063D02*
X006450Y004063D01*
X006450Y004102D02*
X006056Y004102D01*
X006056Y003849D02*
X006450Y003849D01*
X006450Y003691D01*
X006056Y003691D01*
X006056Y003849D01*
X006056Y003730D02*
X006450Y003730D01*
X006450Y003769D02*
X006056Y003769D01*
X006056Y003808D02*
X006450Y003808D01*
X006450Y003847D02*
X006056Y003847D01*
X006056Y003593D02*
X006450Y003593D01*
X006450Y003435D01*
X006056Y003435D01*
X006056Y003593D01*
X006056Y003474D02*
X006450Y003474D01*
X006450Y003513D02*
X006056Y003513D01*
X006056Y003552D02*
X006450Y003552D01*
X006450Y003591D02*
X006056Y003591D01*
X006056Y003337D02*
X006450Y003337D01*
X006450Y003179D01*
X006056Y003179D01*
X006056Y003337D01*
X006056Y003218D02*
X006450Y003218D01*
X006450Y003257D02*
X006056Y003257D01*
X006056Y003296D02*
X006450Y003296D01*
X006450Y003335D02*
X006056Y003335D01*
X006056Y003081D02*
X006450Y003081D01*
X006450Y002923D01*
X006056Y002923D01*
X006056Y003081D01*
X006056Y002962D02*
X006450Y002962D01*
X006450Y003001D02*
X006056Y003001D01*
X006056Y003040D02*
X006450Y003040D01*
X006450Y003079D02*
X006056Y003079D01*
X006529Y002844D02*
X006687Y002844D01*
X006687Y002450D01*
X006529Y002450D01*
X006529Y002844D01*
X006529Y002489D02*
X006687Y002489D01*
X006687Y002528D02*
X006529Y002528D01*
X006529Y002567D02*
X006687Y002567D01*
X006687Y002606D02*
X006529Y002606D01*
X006529Y002645D02*
X006687Y002645D01*
X006687Y002684D02*
X006529Y002684D01*
X006529Y002723D02*
X006687Y002723D01*
X006687Y002762D02*
X006529Y002762D01*
X006529Y002801D02*
X006687Y002801D01*
X006687Y002840D02*
X006529Y002840D01*
X006784Y002844D02*
X006942Y002844D01*
X006942Y002450D01*
X006784Y002450D01*
X006784Y002844D01*
X006784Y002489D02*
X006942Y002489D01*
X006942Y002528D02*
X006784Y002528D01*
X006784Y002567D02*
X006942Y002567D01*
X006942Y002606D02*
X006784Y002606D01*
X006784Y002645D02*
X006942Y002645D01*
X006942Y002684D02*
X006784Y002684D01*
X006784Y002723D02*
X006942Y002723D01*
X006942Y002762D02*
X006784Y002762D01*
X006784Y002801D02*
X006942Y002801D01*
X006942Y002840D02*
X006784Y002840D01*
X007040Y002844D02*
X007198Y002844D01*
X007198Y002450D01*
X007040Y002450D01*
X007040Y002844D01*
X007040Y002489D02*
X007198Y002489D01*
X007198Y002528D02*
X007040Y002528D01*
X007040Y002567D02*
X007198Y002567D01*
X007198Y002606D02*
X007040Y002606D01*
X007040Y002645D02*
X007198Y002645D01*
X007198Y002684D02*
X007040Y002684D01*
X007040Y002723D02*
X007198Y002723D01*
X007198Y002762D02*
X007040Y002762D01*
X007040Y002801D02*
X007198Y002801D01*
X007198Y002840D02*
X007040Y002840D01*
X007296Y002844D02*
X007454Y002844D01*
X007454Y002450D01*
X007296Y002450D01*
X007296Y002844D01*
X007296Y002489D02*
X007454Y002489D01*
X007454Y002528D02*
X007296Y002528D01*
X007296Y002567D02*
X007454Y002567D01*
X007454Y002606D02*
X007296Y002606D01*
X007296Y002645D02*
X007454Y002645D01*
X007454Y002684D02*
X007296Y002684D01*
X007296Y002723D02*
X007454Y002723D01*
X007454Y002762D02*
X007296Y002762D01*
X007296Y002801D02*
X007454Y002801D01*
X007454Y002840D02*
X007296Y002840D01*
X007552Y002844D02*
X007710Y002844D01*
X007710Y002450D01*
X007552Y002450D01*
X007552Y002844D01*
X007552Y002489D02*
X007710Y002489D01*
X007710Y002528D02*
X007552Y002528D01*
X007552Y002567D02*
X007710Y002567D01*
X007710Y002606D02*
X007552Y002606D01*
X007552Y002645D02*
X007710Y002645D01*
X007710Y002684D02*
X007552Y002684D01*
X007552Y002723D02*
X007710Y002723D01*
X007710Y002762D02*
X007552Y002762D01*
X007552Y002801D02*
X007710Y002801D01*
X007710Y002840D02*
X007552Y002840D01*
X007808Y002844D02*
X007966Y002844D01*
X007966Y002450D01*
X007808Y002450D01*
X007808Y002844D01*
X007808Y002489D02*
X007966Y002489D01*
X007966Y002528D02*
X007808Y002528D01*
X007808Y002567D02*
X007966Y002567D01*
X007966Y002606D02*
X007808Y002606D01*
X007808Y002645D02*
X007966Y002645D01*
X007966Y002684D02*
X007808Y002684D01*
X007808Y002723D02*
X007966Y002723D01*
X007966Y002762D02*
X007808Y002762D01*
X007808Y002801D02*
X007966Y002801D01*
X007966Y002840D02*
X007808Y002840D01*
X008064Y002844D02*
X008222Y002844D01*
X008222Y002450D01*
X008064Y002450D01*
X008064Y002844D01*
X008064Y002489D02*
X008222Y002489D01*
X008222Y002528D02*
X008064Y002528D01*
X008064Y002567D02*
X008222Y002567D01*
X008222Y002606D02*
X008064Y002606D01*
X008064Y002645D02*
X008222Y002645D01*
X008222Y002684D02*
X008064Y002684D01*
X008064Y002723D02*
X008222Y002723D01*
X008222Y002762D02*
X008064Y002762D01*
X008064Y002801D02*
X008222Y002801D01*
X008222Y002840D02*
X008064Y002840D01*
X008300Y003081D02*
X008694Y003081D01*
X008694Y002923D01*
X008300Y002923D01*
X008300Y003081D01*
X008300Y002962D02*
X008694Y002962D01*
X008694Y003001D02*
X008300Y003001D01*
X008300Y003040D02*
X008694Y003040D01*
X008694Y003079D02*
X008300Y003079D01*
X008300Y003337D02*
X008694Y003337D01*
X008694Y003179D01*
X008300Y003179D01*
X008300Y003337D01*
X008300Y003218D02*
X008694Y003218D01*
X008694Y003257D02*
X008300Y003257D01*
X008300Y003296D02*
X008694Y003296D01*
X008694Y003335D02*
X008300Y003335D01*
X008300Y003593D02*
X008694Y003593D01*
X008694Y003435D01*
X008300Y003435D01*
X008300Y003593D01*
X008300Y003474D02*
X008694Y003474D01*
X008694Y003513D02*
X008300Y003513D01*
X008300Y003552D02*
X008694Y003552D01*
X008694Y003591D02*
X008300Y003591D01*
X008300Y003849D02*
X008694Y003849D01*
X008694Y003691D01*
X008300Y003691D01*
X008300Y003849D01*
X008300Y003730D02*
X008694Y003730D01*
X008694Y003769D02*
X008300Y003769D01*
X008300Y003808D02*
X008694Y003808D01*
X008694Y003847D02*
X008300Y003847D01*
X008300Y004104D02*
X008694Y004104D01*
X008694Y003946D01*
X008300Y003946D01*
X008300Y004104D01*
X008300Y003985D02*
X008694Y003985D01*
X008694Y004024D02*
X008300Y004024D01*
X008300Y004063D02*
X008694Y004063D01*
X008694Y004102D02*
X008300Y004102D01*
D13*
X008048Y004443D02*
X006702Y004443D01*
X008048Y004443D02*
X008048Y003097D01*
X006702Y003097D01*
X006702Y004443D01*
X006702Y003246D02*
X008048Y003246D01*
X008048Y003395D02*
X006702Y003395D01*
X006702Y003544D02*
X008048Y003544D01*
X008048Y003693D02*
X006702Y003693D01*
X006702Y003842D02*
X008048Y003842D01*
X008048Y003991D02*
X006702Y003991D01*
X006702Y004140D02*
X008048Y004140D01*
X008048Y004289D02*
X006702Y004289D01*
X006702Y004438D02*
X008048Y004438D01*
D14*
X002475Y004436D03*
X002475Y002703D03*
D15*
X003596Y001970D03*
X001234Y001970D03*
X001234Y003600D03*
X003596Y003600D03*
X003616Y005270D03*
X001254Y005270D03*
D16*
X004012Y004450D03*
X004839Y004450D03*
X004862Y005770D03*
X005689Y005770D03*
X013212Y001870D03*
X014039Y001870D03*
X014762Y001870D03*
X015589Y001870D03*
X015139Y005120D03*
X014312Y005120D03*
D17*
X005125Y002620D02*
X004525Y002620D01*
X004525Y001620D02*
X005125Y001620D01*
D18*
X014556Y002770D03*
X015895Y002770D03*
D19*
X013205Y002610D03*
X013205Y003729D03*
D20*
X012825Y004506D03*
X012075Y004506D03*
X012075Y005333D03*
X012825Y005333D03*
X016005Y004333D03*
X016005Y003506D03*
D21*
X011375Y002389D03*
X010875Y002389D03*
X010375Y002389D03*
X009875Y002389D03*
X009875Y005169D03*
X010375Y005169D03*
X010875Y005169D03*
X011375Y005169D03*
D22*
X010545Y001620D03*
X009757Y001620D03*
X008970Y001620D03*
X008183Y001620D03*
X007395Y001620D03*
D23*
X005755Y002100D03*
X016875Y003090D03*
X016915Y001760D03*
D24*
X016115Y001870D03*
X016465Y002480D03*
X013975Y003730D03*
X012425Y003720D03*
X012305Y002930D03*
X012345Y002250D03*
X011635Y001650D03*
X010225Y003240D03*
X009375Y003220D03*
X008675Y002620D03*
X007375Y002190D03*
X005777Y003258D03*
X004425Y003420D03*
X004425Y003920D03*
X005595Y004700D03*
X006195Y005600D03*
X006625Y005880D03*
X007485Y005670D03*
X008605Y005190D03*
X008995Y004870D03*
X008975Y004370D03*
X009425Y005670D03*
X013425Y005320D03*
X013835Y005660D03*
X015165Y005770D03*
X015845Y005800D03*
X016525Y005370D03*
X015715Y004980D03*
X002525Y005370D03*
X002325Y001610D03*
M02*
