%
M48
M72
T01C0.0236
T02C0.0354
T03C0.0400
%
T01
X3750Y2700
X3750Y2200
X6700Y970
X7930Y3970
X12750Y4100
X11670Y1030
X5102Y2038
X13300Y2510
X10960Y430
X1850Y4150
X6810Y4450
X1650Y390
X15170Y4580
X8750Y4450
X4920Y3480
X13160Y4440
X14490Y4550
X11630Y1710
X15040Y3760
X5520Y4380
X15850Y4150
X9550Y2020
X8700Y2000
X11750Y2500
X8300Y3150
X8320Y3650
X8000Y1400
X5950Y4660
X15440Y650
X15790Y1260
T02
X1800Y1484
X1800Y3216
T03
X4150Y1400
X4150Y400
M30
